<svg width="168" height="48" viewBox="0 0 168 48" fill="none" xmlns="http://www.w3.org/2000/svg">
<path d="M21.8787 26.1213C21.312 25.5547 20.6349 25 19.8336 25H6V23H19.8336C20.6349 23 21.312 22.4453 21.8787 21.8787C22.4453 21.312 23 20.6349 23 19.8336V6H25V19.8336C25 20.6349 25.5547 21.312 26.1213 21.8787C26.688 22.4453 27.3651 23 28.1664 23H42V25H28.1664C27.3651 25 26.688 25.5547 26.1213 26.1213C25.5547 26.688 25 27.3651 25 28.1664V42H23V28.1664C23 27.3651 22.4453 26.688 21.8787 26.1213Z" fill="#1A1A1E"/>
<path d="M81.8787 26.1213C81.312 25.5547 80.6349 25 79.8336 25H66V23H79.8336C80.6349 23 81.312 22.4453 81.8787 21.8787C82.4453 21.312 83 20.6349 83 19.8336V6H85V19.8336C85 20.6349 85.5547 21.312 86.1213 21.8787C86.688 22.4453 87.3651 23 88.1664 23H102V25H88.1664C87.3651 25 86.688 25.5547 86.1213 26.1213C85.5547 26.688 85 27.3651 85 28.1664V42H83V28.1664C83 27.3651 82.4453 26.688 81.8787 26.1213Z" fill="#1A1A1E"/>
<path d="M141.879 26.1213C141.312 25.5547 140.635 25 139.834 25H126V23H139.834C140.635 23 141.312 22.4453 141.879 21.8787C142.445 21.312 143 20.6349 143 19.8336V6H145V19.8336C145 20.6349 145.555 21.312 146.121 21.8787C146.688 22.4453 147.365 23 148.166 23H162V25H148.166C147.365 25 146.688 25.5547 146.121 26.1213C145.555 26.688 145 27.3651 145 28.1664V42H143V28.1664C143 27.3651 142.445 26.688 141.879 26.1213Z" fill="#1A1A1E"/>
</svg>
