<svg width="125" height="32" viewBox="0 0 125 32" fill="none" xmlns="http://www.w3.org/2000/svg">
<g filter="url(#filter0_b_406_995)">
<rect width="125" height="32" rx="16" fill="white" fill-opacity="0.32"/>
<rect x="0.5" y="0.5" width="124" height="31" rx="15.5" stroke="#F0F1F2"/>
<path d="M19.9301 21.12C18.7061 21.12 17.5661 20.736 16.7741 20.004L17.4221 18.864C18.1661 19.488 19.0181 19.716 19.8341 19.716C20.9501 19.716 21.5981 19.332 21.5981 18.648C21.5981 17.928 20.8421 17.616 19.7381 17.304L19.2221 17.16C17.7701 16.764 16.6661 16.152 16.6661 14.7C16.6661 13.08 17.9861 12 19.9661 12C21.0941 12 22.1141 12.336 22.9541 13.02L22.1981 14.196C21.5501 13.668 20.8421 13.404 19.9781 13.404C19.0301 13.404 18.4181 13.8 18.4181 14.424C18.4181 15.132 19.1261 15.384 20.0021 15.636L20.5181 15.78C21.8861 16.152 23.3501 16.896 23.3501 18.492C23.3501 20.064 21.9701 21.12 19.9301 21.12ZM25.5037 13.476C24.9397 13.476 24.5317 13.08 24.5317 12.516C24.5317 11.952 24.9397 11.544 25.5037 11.544C26.0677 11.544 26.4637 11.952 26.4637 12.516C26.4637 13.08 26.0677 13.476 25.5037 13.476ZM24.6877 21V14.532H26.3197V21H24.6877ZM28.8683 21V13.524H27.4883V12.12H30.5603V21H28.8683ZM35.9618 21V19.284H31.8458V18.12L36.3338 12.12H37.6537V17.88H38.8778V19.284H37.6537V21H35.9618ZM33.8378 17.928H36.0098L36.0338 15L33.8378 17.928ZM46.9138 12.12C48.7858 12.12 50.0218 13.272 50.0218 14.988C50.0218 16.776 48.7618 17.976 46.8538 17.976H45.0058V21H43.3138V12.12H46.9138ZM46.7338 16.572C47.6938 16.572 48.2818 15.96 48.2818 15.048C48.2818 14.136 47.6698 13.524 46.7338 13.524H45.0058V16.572H46.7338ZM54.8915 14.412C56.4395 14.412 57.4715 15.42 57.4715 16.932V21H55.8395V17.196C55.8395 16.356 55.2395 15.804 54.3275 15.804C53.4155 15.804 52.8155 16.356 52.8155 17.196V21H51.1835V11.64H52.8155V15.312C53.3075 14.712 54.0515 14.412 54.8915 14.412ZM59.0107 14.532H64.4108V21H62.8388L62.8028 20.076C62.3708 20.748 61.6268 21.12 60.8348 21.12C59.5028 21.12 58.6028 20.316 58.6028 19.116C58.6028 17.868 59.6948 17.052 61.3508 17.052C61.7948 17.052 62.2868 17.1 62.7788 17.196V15.816H59.0107V14.532ZM61.3027 19.956C62.0588 19.956 62.7668 19.356 62.7788 18.3C62.3588 18.216 61.9268 18.168 61.5548 18.168C60.7988 18.168 60.2948 18.528 60.2948 19.08C60.2948 19.608 60.6428 19.956 61.3027 19.956ZM67.6623 15.396C68.1783 14.76 68.9943 14.412 70.0383 14.412L69.9303 15.912C68.5863 15.912 67.6983 16.56 67.6983 17.532V21H66.0663V14.532H67.6383L67.6623 15.396ZM78.525 14.412C80.097 14.412 81.153 15.42 81.153 16.932V21H79.521V17.196C79.521 16.356 78.993 15.804 78.189 15.804C77.397 15.804 76.869 16.356 76.869 17.196V21H75.237V17.196C75.237 16.356 74.709 15.804 73.905 15.804C73.113 15.804 72.585 16.356 72.585 17.196V21H70.953V14.532H72.525L72.549 15.3C73.005 14.712 73.689 14.412 74.481 14.412C75.333 14.412 76.017 14.772 76.437 15.384C76.905 14.748 77.661 14.412 78.525 14.412ZM82.6943 14.532H88.0943V21H86.5223L86.4863 20.076C86.0543 20.748 85.3103 21.12 84.5183 21.12C83.1863 21.12 82.2863 20.316 82.2863 19.116C82.2863 17.868 83.3783 17.052 85.0343 17.052C85.4783 17.052 85.9703 17.1 86.4623 17.196V15.816H82.6943V14.532ZM84.9863 19.956C85.7423 19.956 86.4503 19.356 86.4623 18.3C86.0423 18.216 85.6103 18.168 85.2383 18.168C84.4823 18.168 83.9783 18.528 83.9783 19.08C83.9783 19.608 84.3263 19.956 84.9863 19.956Z" fill="#1A1A1E"/>
<path fill-rule="evenodd" clip-rule="evenodd" d="M102.041 9H103.959L104.114 9.81193C104.605 12.3737 106.626 14.3951 109.188 14.8856L110 15.0411V16.9589L109.188 17.1144C106.626 17.6049 104.605 19.6263 104.114 22.1881L103.959 23H102.041L101.886 22.1881C101.395 19.6263 99.3737 17.6049 96.8119 17.1144L96 16.9589V15.0411L96.8119 14.8856C99.3737 14.3951 101.395 12.3737 101.886 9.81193L102.041 9ZM103 12.5781C102.22 14.0268 101.027 15.2197 99.5781 16C101.027 16.7803 102.22 17.9732 103 19.4219C103.78 17.9732 104.973 16.7803 106.422 16C104.973 15.2197 103.78 14.0268 103 12.5781Z" fill="#1A1A1E"/>
</g>
<defs>
<filter id="filter0_b_406_995" x="-40" y="-40" width="205" height="112" filterUnits="userSpaceOnUse" color-interpolation-filters="sRGB">
<feFlood flood-opacity="0" result="BackgroundImageFix"/>
<feGaussianBlur in="BackgroundImageFix" stdDeviation="20"/>
<feComposite in2="SourceAlpha" operator="in" result="effect1_backgroundBlur_406_995"/>
<feBlend mode="normal" in="SourceGraphic" in2="effect1_backgroundBlur_406_995" result="shape"/>
</filter>
</defs>
</svg>
