<svg width="48" height="48" viewBox="0 0 48 48" fill="none" xmlns="http://www.w3.org/2000/svg">
<path d="M24.0005 27C23.1991 27 22.3281 27.0865 21.7615 27.6532L11.9796 37.435L10.5654 36.0208L20.3473 26.239C20.9139 25.6723 21.0005 24.8013 21.0005 24C21.0005 23.1986 20.9139 22.3276 20.3473 21.761L10.5654 11.9792L11.9796 10.5649L21.7615 20.3468C22.3281 20.9134 23.1991 21 24.0005 21C24.8018 21 25.6728 20.9134 26.2394 20.3468L36.0213 10.5649L37.4355 11.9792L27.6537 21.761C27.087 22.3276 27.0005 23.1986 27.0005 24C27.0005 24.8013 27.087 25.6723 27.6537 26.239L37.4355 36.0208L36.0213 37.435L26.2394 27.6532C25.6728 27.0865 24.8018 27 24.0005 27Z" fill="#F0F1F2"/>
</svg>
