<svg width="112" height="32" viewBox="0 0 112 32" fill="none" xmlns="http://www.w3.org/2000/svg">
<g clip-path="url(#clip0_138_365)">
<path fill-rule="evenodd" clip-rule="evenodd" d="M88.0391 0.621094V14.7331H109.4V0.621094H88.0391ZM103.374 9.10218H100.166V12.3174H97.3109V9.10218H94.1035V6.23983H97.3109V3.02405H100.166V6.23983H103.374V9.10218Z" fill="#E30613"/>
<path fill-rule="evenodd" clip-rule="evenodd" d="M42.3816 28.0384C42.3816 28.8873 42.4327 29.5196 42.5309 29.9313C42.629 30.3429 42.8218 30.6317 43.1059 30.7924C43.3899 30.9566 43.8337 31.037 44.4342 31.037V31.7595H38.1462V31.037C38.7502 31.037 39.1975 30.9566 39.4885 30.7924C39.776 30.6317 39.9729 30.3435 40.0704 29.9313C40.1692 29.5155 40.2197 28.8879 40.2197 28.0384V19.0088C40.2197 18.1622 40.1733 17.5345 40.0745 17.1229C39.9769 16.7147 39.7841 16.4248 39.4925 16.2582C39.2021 16.0929 38.7537 16.0102 38.1462 16.0102V15.2876H45.7115C46.5851 15.2876 47.3971 15.4402 48.1463 15.7511C48.8927 16.0603 49.4921 16.5331 49.9405 17.163C50.3872 17.7907 50.6137 18.5529 50.6137 19.4466C50.6137 23.969 46.2006 26.0925 42.3822 24.6799V28.0389L42.3816 28.0384ZM24.115 2.98521L27.7347 0L31.3539 2.98521L27.7347 5.97041L24.115 2.98521ZM45.5494 8.54688V10.1917H50.5179V11.5309V12.1778H52.4073V11.5309V10.1917H53.5527V8.4217H52.4073V5.2525H50.5179V8.4217H47.8809L51.3897 0.525192H49.6089L45.5494 8.54688ZM39.7603 4.94565V10.2843V12.1784H41.727V10.2843V5.52499V0.765662V0.525192L39.7603 0.528685L37.7506 2.69233L38.6567 3.86732L39.7603 2.82334V4.94623V4.94565ZM25.1605 10.6686L25.0861 31.4969H30.4269V10.6686H25.1611H25.1605ZM19.6629 26.8855C21.5686 22.7859 19.8964 18.4207 16.5653 15.7953C14.1386 13.8821 10.4712 12.2634 8.3785 10.1952C7.28305 9.11283 6.75914 7.90466 8.22807 6.81701C10.3127 5.27288 13.5961 6.27901 15.6343 7.50116C15.7028 7.54191 15.7713 7.58384 15.8393 7.62634L20.0747 4.52934C18.1191 1.65418 14.5063 0.401172 11.1497 0.401172C7.40735 0.401172 3.57851 1.98839 1.95334 5.54595C1.13088 7.34744 1.01007 9.60017 1.61413 11.489C2.26583 13.5263 3.53611 14.6646 5.2182 15.9293C7.51074 17.6527 15.5361 21.0135 13.836 24.5181C12.9648 26.3131 9.97753 26.319 8.34365 25.919C6.72255 25.5224 5.37851 24.5926 4.16863 23.4793L0 26.5268C1.43349 30.3388 6.67608 32 10.4614 32C14.1671 32 18.0186 30.4238 19.6629 26.8855ZM42.3816 23.9573C46.1216 24.5821 48.3206 23.0275 48.3206 19.3116C48.3206 18.1843 47.982 17.3488 47.3012 16.8125C46.6205 16.2763 45.6964 16.0102 44.5324 16.0102C43.8732 16.0102 43.3893 16.1045 43.0838 16.2949C42.7742 16.4876 42.5814 16.7619 42.5018 17.1194C42.4222 17.4763 42.3816 18.0067 42.3816 18.7025V23.9573ZM54.6522 28.7603C54.6522 29.5301 54.6743 30.0518 54.7179 30.3179C54.7649 30.588 54.8782 30.7738 55.067 30.8763C55.2528 30.9747 55.6094 31.0591 56.1334 31.1243V31.7589H51.2718V31.1243C51.7887 31.0585 52.1413 30.9747 52.3272 30.8763C52.509 30.7744 52.624 30.5875 52.6658 30.3179C52.707 30.0518 52.7314 29.5301 52.7314 28.7603V17.2061C52.7314 16.5715 52.6838 16.1261 52.5932 15.8821C52.5026 15.6381 52.3527 15.4885 52.1489 15.4332C51.949 15.3796 51.5233 15.3313 50.8757 15.2835V14.6489L54.6528 13.3976V22.5186C54.9909 22.2123 55.3771 21.9317 55.8139 21.6726C56.2466 21.4135 56.702 21.2056 57.1748 21.049C57.6476 20.8918 58.0954 20.8155 58.5171 20.8155C59.2489 20.8155 59.8164 20.9797 60.2166 21.304C60.6203 21.6289 60.8933 22.0778 61.0425 22.6432C61.1918 23.2086 61.2679 23.9125 61.2679 24.755V28.7609C61.2679 29.5307 61.29 30.0489 61.3335 30.3185C61.3736 30.5886 61.4898 30.7744 61.6722 30.8768C61.858 30.9752 62.2106 31.0597 62.7275 31.1249V31.7595H57.8881V31.1249C58.4044 31.0591 58.7576 30.9752 58.9428 30.8768C59.1252 30.7749 59.2414 30.5886 59.2809 30.3185C59.325 30.0524 59.3465 29.5307 59.3465 28.7609V24.755C59.3465 23.8758 59.2222 23.194 58.9719 22.7084C58.7245 22.2199 58.2586 21.9754 57.5814 21.9754C56.7154 21.9754 55.7401 22.4645 54.6522 23.4456V28.7609V28.7603ZM70.0489 26.0243C69.478 26.1227 68.8844 26.305 68.2693 26.5827C67.6542 26.8564 67.1413 27.2139 66.7231 27.6552C66.3043 28.0966 66.097 28.5967 66.097 29.158C66.097 29.6541 66.2532 30.0594 66.5628 30.3726C66.8724 30.6829 67.2505 30.8396 67.6908 30.8396C68.0695 30.8396 68.4836 30.7156 68.9314 30.464C69.3792 30.216 69.7504 29.9237 70.0484 29.5889V26.0249L70.0489 26.0243ZM70.0489 23.8578C70.0489 22.3113 69.5395 21.5375 68.5208 21.5375C67.6112 21.5375 67.0141 22.0918 66.7301 23.201C66.6244 23.5696 66.4791 23.8467 66.2939 24.0255C66.1086 24.2036 65.8315 24.2956 65.4679 24.2956C65.1583 24.2956 64.9109 24.2077 64.7215 24.029C64.5322 23.8537 64.4381 23.6208 64.4381 23.332C64.4381 22.7736 64.6565 22.3032 65.0933 21.9241C65.5335 21.5451 66.0575 21.2639 66.676 21.0851C67.2911 20.9063 67.8731 20.8149 68.4156 20.8149C69.6383 20.8149 70.563 21.0705 71.1885 21.5777C71.5306 21.8659 71.749 22.1978 71.8362 22.5809C71.9274 22.964 71.9709 23.4636 71.9709 24.0767V29.0672C71.9709 29.4905 72.011 29.8445 72.0871 30.1286C72.1632 30.4134 72.3415 30.5554 72.6261 30.5554C72.8915 30.5554 73.1901 30.3732 73.5212 30.0046L73.8046 30.4646C73.1169 31.4899 72.3746 32.0006 71.5742 32.0006C71.1519 32.0006 70.8098 31.8544 70.5514 31.5662C70.2894 31.2745 70.1366 30.9094 70.0931 30.4646C68.8304 31.4899 67.6693 32.0006 66.6034 32.0006C65.8391 32.0006 65.217 31.7601 64.7401 31.2815C64.2633 30.8035 64.0228 30.1764 64.0228 29.3997C64.0228 28.5094 64.3428 27.7909 64.98 27.236C65.6172 26.6817 66.3519 26.273 67.1854 26.0139C68.0189 25.7507 68.9721 25.5143 70.0495 25.3064V23.8578H70.0489ZM77.4551 28.7603C77.4551 29.5301 77.4766 30.0518 77.5208 30.3179C77.5603 30.588 77.677 30.7738 77.8588 30.8763C78.0447 30.9747 78.3978 31.0591 78.9142 31.1243V31.7589H74.0927V31.1243C74.6061 31.0585 74.9517 30.9747 75.1341 30.8763C75.3153 30.7744 75.4286 30.588 75.4687 30.3179C75.5128 30.0518 75.5343 29.5301 75.5343 28.7603V24.0546C75.5088 23.5911 75.4687 23.2633 75.4181 23.0624C75.3635 22.8656 75.2398 22.7195 75.0505 22.6246C74.8576 22.5262 74.5486 22.4784 74.1153 22.4784V21.9532L77.4563 20.6612V23.2476C78.0604 22.4959 78.6499 21.8758 79.2249 21.3908C79.8034 20.9058 80.4081 20.6612 81.0371 20.6612C81.4083 20.6612 81.7248 20.7783 81.9908 21.0152C82.2563 21.2522 82.3876 21.5585 82.3876 21.934C82.3876 22.2845 82.2784 22.5762 82.064 22.8097C81.8456 23.0397 81.5616 23.1562 81.2085 23.1562C80.961 23.1562 80.6665 23.0613 80.3314 22.8714C79.9928 22.6857 79.7058 22.5908 79.4654 22.5908C79.1233 22.5908 78.7597 22.7661 78.374 23.116C77.9918 23.4665 77.6863 23.831 77.4569 24.21V28.7592L77.4551 28.7603ZM86.738 28.7603C86.738 29.5301 86.7601 30.0518 86.8036 30.3179C86.8512 30.588 86.9639 30.7738 87.1533 30.8763C87.3386 30.9747 87.6952 31.0591 88.2267 31.1243V31.7589H83.3285V31.1243C83.86 31.0585 84.216 30.9747 84.4019 30.8763C84.5912 30.7744 84.7039 30.588 84.7515 30.3179C84.7951 30.0518 84.8172 29.5301 84.8172 28.7603V24.0546C84.7806 23.4089 84.6929 22.9856 84.5477 22.7812C84.4019 22.5768 84.0197 22.4784 83.3941 22.4784V21.9532L86.7386 20.6612V22.8284C87.1864 22.2374 87.7318 21.7559 88.3724 21.3803C89.0131 21.0047 89.6793 20.8149 90.363 20.8149C90.9635 20.8149 91.4944 21.0047 91.9533 21.3803C92.4156 21.7559 92.7502 22.2374 92.9575 22.8284C93.6162 22.1861 94.2313 21.6866 94.8028 21.3401C95.3703 20.9896 96.0034 20.8149 96.6946 20.8149C97.7941 20.8149 98.5724 21.2161 99.0313 22.019C99.2387 22.3946 99.3659 22.8214 99.4135 23.2924C99.464 23.7629 99.4896 24.3463 99.4896 25.0432V28.7609C99.4896 29.5307 99.5117 30.0489 99.5552 30.3185C99.5953 30.5886 99.712 30.7744 99.8973 30.8768C100.083 30.9752 100.436 31.0597 100.956 31.1249V31.7595H96.0801V31.1249C96.611 31.0591 96.9682 30.9752 97.1535 30.8768C97.3422 30.7749 97.4555 30.5886 97.5025 30.3185C97.5461 30.0524 97.5682 29.5307 97.5682 28.7609V24.8464C97.5682 24.2811 97.5426 23.8071 97.488 23.4205C97.4334 23.0339 97.2917 22.6979 97.0553 22.4103C96.8224 22.1221 96.4617 21.9759 95.9744 21.9759C95.0462 21.9759 94.0896 22.5087 93.1144 23.5742V28.7615C93.1144 29.5312 93.1358 30.0529 93.18 30.319C93.227 30.5892 93.3397 30.7749 93.5291 30.8774C93.7149 30.9758 94.071 31.0602 94.6025 31.1255V31.7601H89.7264V31.1255C90.2468 31.0597 90.5994 30.9758 90.7852 30.8774C90.9705 30.7755 91.0873 30.5892 91.1273 30.319C91.1715 30.0529 91.193 29.5312 91.193 28.7615V24.847C91.193 24.3073 91.1599 23.8403 91.0983 23.4426C91.0361 23.045 90.8834 22.702 90.6394 22.4103C90.392 22.1221 90.0243 21.9759 89.5295 21.9759C88.5577 21.9759 87.6261 22.5087 86.7386 23.5742V28.7615L86.738 28.7603ZM107.578 26.0243C107.007 26.1227 106.414 26.3067 105.799 26.5827C105.184 26.8575 104.671 27.2139 104.252 27.6552C103.834 28.0966 103.626 28.5967 103.626 29.158C103.626 29.6541 103.781 30.0605 104.092 30.3726C104.4 30.6835 104.779 30.8396 105.22 30.8396C105.598 30.8396 106.012 30.7138 106.461 30.464C106.907 30.2148 107.28 29.9237 107.578 29.5889V26.0249V26.0243ZM107.578 23.8578C107.578 22.3113 107.068 21.5375 106.049 21.5375C105.14 21.5375 104.551 22.0941 104.259 23.201C104.161 23.5719 104.008 23.8467 103.823 24.0255C103.637 24.2036 103.36 24.2956 102.997 24.2956C102.687 24.2956 102.441 24.2071 102.251 24.029C102.063 23.8531 101.967 23.6208 101.967 23.332C101.967 22.7736 102.185 22.302 102.622 21.9241C103.061 21.5439 103.586 21.2639 104.205 21.0851C104.82 20.9069 105.402 20.8149 105.944 20.8149C107.167 20.8149 108.095 21.0665 108.718 21.5777C109.063 21.8612 109.277 22.1984 109.365 22.5809C109.454 22.964 109.5 23.4642 109.5 24.0767V29.0672C109.5 29.4905 109.54 29.8445 109.616 30.1286C109.692 30.4134 109.871 30.5554 110.155 30.5554C110.42 30.5554 110.719 30.3732 111.05 30.0046L111.334 30.4646C110.646 31.4899 109.903 32.0006 109.103 32.0006C108.681 32.0006 108.339 31.8544 108.081 31.5662C107.819 31.2745 107.666 30.9094 107.622 30.4646C106.36 31.4899 105.199 32.0006 104.132 32.0006C103.368 32.0006 102.746 31.7595 102.269 31.2815C101.793 30.8035 101.552 30.1764 101.552 29.3997C101.552 28.5094 101.873 27.7909 102.509 27.236C103.146 26.6817 103.881 26.2741 104.714 26.0139C105.548 25.753 106.501 25.5143 107.578 25.3064V23.8578Z" fill="#1A1A1E"/>
</g>
<defs>
<clipPath id="clip0_138_365">
<rect width="112" height="32" fill="white"/>
</clipPath>
</defs>
</svg>
