<svg width="48" height="48" viewBox="0 0 48 48" fill="none" xmlns="http://www.w3.org/2000/svg">
<path d="M21.8787 26.1213C21.312 25.5547 20.6349 25 19.8336 25H6V23H19.8336C20.6349 23 21.312 22.4453 21.8787 21.8787C22.4453 21.312 23 20.6349 23 19.8336V6H25V19.8336C25 20.6349 25.5547 21.312 26.1213 21.8787C26.688 22.4453 27.3651 23 28.1664 23H42V25H28.1664C27.3651 25 26.688 25.5547 26.1213 26.1213C25.5547 26.688 25 27.3651 25 28.1664V42H23V28.1664C23 27.3651 22.4453 26.688 21.8787 26.1213Z" fill="#1A1A1E"/>
</svg>
