<svg width="48" height="50" viewBox="0 0 48 50" fill="none" xmlns="http://www.w3.org/2000/svg">
<path fill-rule="evenodd" clip-rule="evenodd" d="M10 22C10 15.3726 15.3726 10 22 10C28.6274 10 34 15.3726 34 22C34 23.6379 33.6719 25.1991 33.0778 26.6215C32.2758 28.5415 32.2949 30.8807 33.7661 32.3519L35.7071 34.2929L38 36.5858L38.0017 36.5874L38.7071 37.2929L37.2929 38.7071L36.5858 38L34.2929 35.7071L32.3519 33.7661C30.8807 32.2949 28.5415 32.2758 26.6215 33.0778C25.1991 33.6719 23.6379 34 22 34C15.3726 34 10 28.6274 10 22ZM12 22C12 16.4772 16.4772 12 22 12C27.5228 12 32 16.4772 32 22C32 27.5228 27.5228 32 22 32C16.4772 32 12 27.5228 12 22Z" fill="#1A1A1E"/>
</svg>
