<svg width="18" height="18" viewBox="0 0 18 18" fill="none" xmlns="http://www.w3.org/2000/svg">
<path d="M10 12.227C10 11.6591 10.3661 11.1694 10.7678 10.7678C11.1694 10.3661 11.6591 10 12.227 10H18V8H12.227C11.6591 8 11.1694 7.63385 10.7678 7.23223C10.3661 6.83061 10 6.34094 10 5.77296V0H8V5.77296C8 6.34094 7.63385 6.83061 7.23223 7.23223C6.83061 7.63385 6.34094 8 5.77296 8H0V10H5.77296C6.34094 10 6.83061 10.3661 7.23223 10.7678C7.63385 11.1694 8 11.6591 8 12.227V18H10V12.227Z" fill="#1A1A1E"/>
</svg>
