<svg width="24" height="24" viewBox="0 0 24 24" fill="none" xmlns="http://www.w3.org/2000/svg">
<path fill-rule="evenodd" clip-rule="evenodd" d="M11.0411 5H12.9589L13.1144 5.81193C13.6049 8.37373 15.6263 10.3951 18.1881 10.8856L19 11.0411V12.9589L18.1881 13.1144C15.6263 13.6049 13.6049 15.6263 13.1144 18.1881L12.9589 19H11.0411L10.8856 18.1881C10.3951 15.6263 8.37373 13.6049 5.81193 13.1144L5 12.9589V11.0411L5.81193 10.8856C8.37373 10.3951 10.3951 8.37373 10.8856 5.81193L11.0411 5ZM12 8.57806C11.2197 10.0268 10.0268 11.2197 8.57806 12C10.0268 12.7803 11.2197 13.9732 12 15.4219C12.7803 13.9732 13.9732 12.7803 15.4219 12C13.9732 11.2197 12.7803 10.0268 12 8.57806Z" fill="#1A1A1E"/>
</svg>
