<svg width="1760" height="120" viewBox="0 0 1760 120" fill="none" xmlns="http://www.w3.org/2000/svg">
<path fill-rule="evenodd" clip-rule="evenodd" d="M325 90C325 73.4315 338.431 60 355 60H1405C1421.57 60 1435 73.4315 1435 90C1435 106.569 1448.43 120 1465 120H1730C1746.57 120 1760 106.569 1760 90C1760 73.4315 1746.57 60 1730 60H1590C1573.43 60 1560 46.5685 1560 30C1560 13.4315 1546.57 0 1530 0H230C213.431 0 200 13.4315 200 30C200 46.5685 186.569 60 170 60H30C13.4314 60 0 73.4315 0 90C0 106.569 13.4314 120 30 120H295C311.569 120 325 106.569 325 90Z" fill="#E1E3E6"/>
</svg>
