<svg width="1760" height="120" viewBox="0 0 1760 120" fill="none" xmlns="http://www.w3.org/2000/svg">
<path fill-rule="evenodd" clip-rule="evenodd" d="M425 90C425 73.4315 438.431 60 455 60H1305C1321.57 60 1335 73.4315 1335 90C1335 106.569 1348.43 120 1365 120H1730C1746.57 120 1760 106.569 1760 90C1760 73.4315 1746.57 60 1730 60H1590C1573.43 60 1560 46.5685 1560 30C1560 13.4315 1546.57 0 1530 0H230C213.431 0 200 13.4315 200 30C200 46.5685 186.569 60 170 60H30C13.4314 60 0 73.4315 0 90C0 106.569 13.4314 120 30 120H395C411.569 120 425 106.569 425 90Z" fill="#E1E3E6"/>
</svg>
