<svg width="390" height="48" viewBox="0 0 390 48" fill="none" xmlns="http://www.w3.org/2000/svg">
<path fill-rule="evenodd" clip-rule="evenodd" d="M80 36C80 29.3726 85.3726 24 92 24H298C304.627 24 310 29.3726 310 36C310 42.6274 315.373 48 322 48H378C384.627 48 390 42.6274 390 36C390 29.3726 384.627 24 378 24H367C360.373 24 355 18.6274 355 12C355 5.37258 349.627 0 343 0H47C40.3726 0 35 5.37258 35 12C35 18.6274 29.6274 24 23 24H12C5.37259 24 0 29.3726 0 36C0 42.6274 5.37259 48 12 48H68C74.6274 48 80 42.6274 80 36Z" fill="#E1E3E6"/>
</svg>
