<svg width="1168" height="720" viewBox="0 0 1168 720" fill="none" xmlns="http://www.w3.org/2000/svg">
<path fill-rule="evenodd" clip-rule="evenodd" d="M1167.37 576C1167.37 635.996 1167.37 665.994 1152.09 687.023C1147.15 693.814 1141.18 699.787 1134.39 704.721C1113.36 720 1083.36 720 1023.37 720H875.366C832.841 720 798.366 685.526 798.366 643V643C798.366 600.474 763.892 566 721.367 566H144C84.0043 566 54.0064 566 32.9772 550.721C26.1856 545.787 20.213 539.814 15.2786 533.023C0 511.994 0 481.996 0 422V144C0 84.0043 0 54.0064 15.2786 32.9772C20.213 26.1856 26.1856 20.213 32.9772 15.2786C54.0064 0 84.0043 0 144 0H924C925.857 0 926.785 0 927.571 0.0154206C970.523 0.858897 1005.14 35.4767 1005.98 78.4293C1006 79.2146 1006 80.3643 1006 82.6637V82.6637C1006 83.7334 1006 84.2683 1006 84.5366C1006.3 128.3 1041.7 163.705 1085.46 163.998C1085.73 164 1086.05 164 1086.68 164V164C1087.32 164 1087.63 164 1087.9 164.002C1131.67 164.295 1167.07 199.7 1167.36 243.463C1167.37 243.732 1167.37 244.049 1167.37 244.683V576Z" fill="#C8C9CC"/>
</svg>
