<svg width="1228" height="582" viewBox="0 0 1228 582" fill="none" xmlns="http://www.w3.org/2000/svg">
<rect x="143.5" y="0.5" width="1084" height="499" rx="39.5" stroke="#C8C9CC"/>
<rect x="143" y="48" width="1085" height="1" fill="#C8C9CC"/>
<rect x="143" y="105.571" width="1085" height="1" fill="#C8C9CC"/>
<rect x="143" y="163.143" width="1085" height="1" fill="#C8C9CC"/>
<rect x="143" y="220.714" width="1085" height="1" fill="#C8C9CC"/>
<rect x="143" y="278.286" width="1085" height="1" fill="#C8C9CC"/>
<rect x="143" y="335.857" width="1085" height="1" fill="#C8C9CC"/>
<rect x="143" y="393.429" width="1085" height="1" fill="#C8C9CC"/>
<rect x="143" y="451" width="1085" height="1" fill="#C8C9CC"/>
<rect x="272" width="1" height="500" fill="#C8C9CC"/>
<rect x="409.667" width="1" height="500" fill="#C8C9CC"/>
<rect x="547.333" width="1" height="500" fill="#C8C9CC"/>
<rect x="685" width="1" height="500" fill="#C8C9CC"/>
<rect x="822.667" width="1" height="500" fill="#C8C9CC"/>
<rect x="960.333" width="1" height="500" fill="#C8C9CC"/>
<rect x="1098" width="1" height="500" fill="#C8C9CC"/>
<path d="M272 470.5L409 438L548 163.5L685.5 206.5L823 178.5L961.5 143.5L1099 48.5" stroke="#F5313C" stroke-width="8" stroke-linecap="round" stroke-linejoin="round"/>
<path d="M58.3523 47.02C61.1123 47.08 62.9323 48.86 62.9323 51.46C62.9323 54.3 60.7723 56.2 57.2923 56.2C55.4723 56.2 53.7323 55.66 52.7723 54.72L53.8323 52.66C54.5523 53.42 55.6923 53.86 56.9723 53.86C58.8523 53.86 60.0123 52.9 60.0123 51.48C60.0123 50.06 58.8923 49.16 57.1923 49.16C56.4323 49.16 55.7723 49.32 55.1723 49.64L54.4123 48.22L58.4923 43.54H53.4523V41.2H62.1723V42.96L58.3523 47.02ZM70.413 56.2C67.033 56.2 64.773 53.16 64.773 48.6C64.773 44.04 67.033 41 70.413 41C73.793 41 76.033 44.04 76.033 48.6C76.033 53.16 73.793 56.2 70.413 56.2ZM70.413 53.86C72.053 53.86 73.133 51.76 73.133 48.6C73.133 45.44 72.053 43.34 70.413 43.34C68.773 43.34 67.693 45.44 67.693 48.6C67.693 51.76 68.773 53.86 70.413 53.86ZM83.6356 56.2C80.2556 56.2 77.9956 53.16 77.9956 48.6C77.9956 44.04 80.2556 41 83.6356 41C87.0156 41 89.2556 44.04 89.2556 48.6C89.2556 53.16 87.0156 56.2 83.6356 56.2ZM83.6356 53.86C85.2756 53.86 86.3556 51.76 86.3556 48.6C86.3556 45.44 85.2756 43.34 83.6356 43.34C81.9956 43.34 80.9156 45.44 80.9156 48.6C80.9156 51.76 81.9956 53.86 83.6356 53.86ZM101.8 56.2C98.4197 56.2 96.1597 53.16 96.1597 48.6C96.1597 44.04 98.4197 41 101.8 41C105.18 41 107.42 44.04 107.42 48.6C107.42 53.16 105.18 56.2 101.8 56.2ZM101.8 53.86C103.44 53.86 104.52 51.76 104.52 48.6C104.52 45.44 103.44 43.34 101.8 43.34C100.16 43.34 99.0797 45.44 99.0797 48.6C99.0797 51.76 100.16 53.86 101.8 53.86ZM115.022 56.2C111.642 56.2 109.382 53.16 109.382 48.6C109.382 44.04 111.642 41 115.022 41C118.402 41 120.642 44.04 120.642 48.6C120.642 53.16 118.402 56.2 115.022 56.2ZM115.022 53.86C116.662 53.86 117.742 51.76 117.742 48.6C117.742 45.44 116.662 43.34 115.022 43.34C113.382 43.34 112.302 45.44 112.302 48.6C112.302 51.76 113.382 53.86 115.022 53.86ZM128.245 56.2C124.865 56.2 122.605 53.16 122.605 48.6C122.605 44.04 124.865 41 128.245 41C131.625 41 133.865 44.04 133.865 48.6C133.865 53.16 131.625 56.2 128.245 56.2ZM128.245 53.86C129.885 53.86 130.965 51.76 130.965 48.6C130.965 45.44 129.885 43.34 128.245 43.34C126.605 43.34 125.525 45.44 125.525 48.6C125.525 51.76 126.605 53.86 128.245 53.86Z" fill="#1A1A1E"/>
<path d="M56.3088 113V111.22L60.8888 106.26C61.6688 105.4 63.3288 103.72 63.3288 102.18C63.3288 101.08 62.5488 100.34 61.4088 100.34C60.1488 100.34 59.3288 101.24 59.3288 102.56L56.4688 102.3C56.4688 99.72 58.4087 98 61.3288 98C64.2488 98 66.1688 99.56 66.1688 101.96C66.1688 104.06 64.7288 105.76 62.7488 107.84L59.9888 110.72L66.3488 110.66V113H56.3088ZM67.7447 98.2H77.7647L72.7647 113H69.7847L74.1047 100.54H67.7447V98.2ZM83.0659 113.2C81.2259 113.2 79.6459 112.76 78.6059 111.88L79.4459 109.84C80.3059 110.54 81.5459 110.86 82.8059 110.86C84.8059 110.86 86.1459 109.8 86.1459 108.22C86.1459 106.86 85.2059 105.96 83.7659 105.96C82.8859 105.96 82.0659 106.26 81.5859 106.68L79.7059 106.42L80.7259 98.2H88.3259V100.54H83.1459L82.6459 103.84C83.0659 103.72 83.6059 103.62 84.2659 103.62C87.0659 103.62 89.0659 105.38 89.0659 108.02C89.0659 111.14 86.6059 113.2 83.0659 113.2ZM101.483 113.2C98.1033 113.2 95.8433 110.16 95.8433 105.6C95.8433 101.04 98.1033 98 101.483 98C104.863 98 107.103 101.04 107.103 105.6C107.103 110.16 104.863 113.2 101.483 113.2ZM101.483 110.86C103.123 110.86 104.203 108.76 104.203 105.6C104.203 102.44 103.123 100.34 101.483 100.34C99.8433 100.34 98.7633 102.44 98.7633 105.6C98.7633 108.76 99.8433 110.86 101.483 110.86ZM114.706 113.2C111.326 113.2 109.066 110.16 109.066 105.6C109.066 101.04 111.326 98 114.706 98C118.086 98 120.326 101.04 120.326 105.6C120.326 110.16 118.086 113.2 114.706 113.2ZM114.706 110.86C116.346 110.86 117.426 108.76 117.426 105.6C117.426 102.44 116.346 100.34 114.706 100.34C113.066 100.34 111.986 102.44 111.986 105.6C111.986 108.76 113.066 110.86 114.706 110.86ZM127.929 113.2C124.549 113.2 122.289 110.16 122.289 105.6C122.289 101.04 124.549 98 127.929 98C131.309 98 133.549 101.04 133.549 105.6C133.549 110.16 131.309 113.2 127.929 113.2ZM127.929 110.86C129.569 110.86 130.649 108.76 130.649 105.6C130.649 102.44 129.569 100.34 127.929 100.34C126.289 100.34 125.209 102.44 125.209 105.6C125.209 108.76 126.289 110.86 127.929 110.86Z" fill="#1A1A1E"/>
<path d="M54.088 170V168.22L58.668 163.26C59.448 162.4 61.108 160.72 61.108 159.18C61.108 158.08 60.328 157.34 59.188 157.34C57.928 157.34 57.108 158.24 57.108 159.56L54.248 159.3C54.248 156.72 56.188 155 59.108 155C62.028 155 63.948 156.56 63.948 158.96C63.948 161.06 62.508 162.76 60.528 164.84L57.768 167.72L64.128 167.66V170H54.088ZM70.064 170.2C68.224 170.2 66.644 169.76 65.604 168.88L66.444 166.84C67.304 167.54 68.544 167.86 69.804 167.86C71.804 167.86 73.144 166.8 73.144 165.22C73.144 163.86 72.204 162.96 70.764 162.96C69.884 162.96 69.064 163.26 68.584 163.68L66.704 163.42L67.724 155.2H75.324V157.54H70.144L69.644 160.84C70.064 160.72 70.604 160.62 71.264 160.62C74.064 160.62 76.064 162.38 76.064 165.02C76.064 168.14 73.604 170.2 70.064 170.2ZM83.5399 170.2C80.1599 170.2 77.8999 167.16 77.8999 162.6C77.8999 158.04 80.1599 155 83.5399 155C86.9199 155 89.1599 158.04 89.1599 162.6C89.1599 167.16 86.9199 170.2 83.5399 170.2ZM83.5399 167.86C85.1799 167.86 86.2599 165.76 86.2599 162.6C86.2599 159.44 85.1799 157.34 83.5399 157.34C81.8999 157.34 80.8199 159.44 80.8199 162.6C80.8199 165.76 81.8999 167.86 83.5399 167.86ZM101.704 170.2C98.324 170.2 96.064 167.16 96.064 162.6C96.064 158.04 98.324 155 101.704 155C105.084 155 107.324 158.04 107.324 162.6C107.324 167.16 105.084 170.2 101.704 170.2ZM101.704 167.86C103.344 167.86 104.424 165.76 104.424 162.6C104.424 159.44 103.344 157.34 101.704 157.34C100.064 157.34 98.984 159.44 98.984 162.6C98.984 165.76 100.064 167.86 101.704 167.86ZM114.927 170.2C111.547 170.2 109.287 167.16 109.287 162.6C109.287 158.04 111.547 155 114.927 155C118.307 155 120.547 158.04 120.547 162.6C120.547 167.16 118.307 170.2 114.927 170.2ZM114.927 167.86C116.567 167.86 117.647 165.76 117.647 162.6C117.647 159.44 116.567 157.34 114.927 157.34C113.287 157.34 112.207 159.44 112.207 162.6C112.207 165.76 113.287 167.86 114.927 167.86ZM128.149 170.2C124.769 170.2 122.509 167.16 122.509 162.6C122.509 158.04 124.769 155 128.149 155C131.529 155 133.769 158.04 133.769 162.6C133.769 167.16 131.529 170.2 128.149 170.2ZM128.149 167.86C129.789 167.86 130.869 165.76 130.869 162.6C130.869 159.44 129.789 157.34 128.149 157.34C126.509 157.34 125.429 159.44 125.429 162.6C125.429 165.76 126.509 167.86 128.149 167.86Z" fill="#1A1A1E"/>
<path d="M55.2814 227V225.22L59.8614 220.26C60.6414 219.4 62.3014 217.72 62.3014 216.18C62.3014 215.08 61.5214 214.34 60.3814 214.34C59.1214 214.34 58.3014 215.24 58.3014 216.56L55.4414 216.3C55.4414 213.72 57.3814 212 60.3014 212C63.2214 212 65.1414 213.56 65.1414 215.96C65.1414 218.06 63.7014 219.76 61.7214 221.84L58.9614 224.72L65.3214 224.66V227H55.2814ZM67.1173 227V225.22L71.6973 220.26C72.4773 219.4 74.1373 217.72 74.1373 216.18C74.1373 215.08 73.3573 214.34 72.2173 214.34C70.9573 214.34 70.1373 215.24 70.1373 216.56L67.2773 216.3C67.2773 213.72 69.2173 212 72.1373 212C75.0573 212 76.9773 213.56 76.9773 215.96C76.9773 218.06 75.5373 219.76 73.5573 221.84L70.7973 224.72L77.1573 224.66V227H67.1173ZM83.0933 227.2C81.2533 227.2 79.6733 226.76 78.6333 225.88L79.4733 223.84C80.3333 224.54 81.5733 224.86 82.8333 224.86C84.8333 224.86 86.1733 223.8 86.1733 222.22C86.1733 220.86 85.2333 219.96 83.7933 219.96C82.9133 219.96 82.0933 220.26 81.6133 220.68L79.7333 220.42L80.7533 212.2H88.3533V214.54H83.1733L82.6733 217.84C83.0933 217.72 83.6333 217.62 84.2933 217.62C87.0933 217.62 89.0933 219.38 89.0933 222.02C89.0933 225.14 86.6333 227.2 83.0933 227.2ZM101.511 227.2C98.1306 227.2 95.8706 224.16 95.8706 219.6C95.8706 215.04 98.1306 212 101.511 212C104.891 212 107.131 215.04 107.131 219.6C107.131 224.16 104.891 227.2 101.511 227.2ZM101.511 224.86C103.151 224.86 104.231 222.76 104.231 219.6C104.231 216.44 103.151 214.34 101.511 214.34C99.8706 214.34 98.7906 216.44 98.7906 219.6C98.7906 222.76 99.8706 224.86 101.511 224.86ZM114.733 227.2C111.353 227.2 109.093 224.16 109.093 219.6C109.093 215.04 111.353 212 114.733 212C118.113 212 120.353 215.04 120.353 219.6C120.353 224.16 118.113 227.2 114.733 227.2ZM114.733 224.86C116.373 224.86 117.453 222.76 117.453 219.6C117.453 216.44 116.373 214.34 114.733 214.34C113.093 214.34 112.013 216.44 112.013 219.6C112.013 222.76 113.093 224.86 114.733 224.86ZM127.956 227.2C124.576 227.2 122.316 224.16 122.316 219.6C122.316 215.04 124.576 212 127.956 212C131.336 212 133.576 215.04 133.576 219.6C133.576 224.16 131.336 227.2 127.956 227.2ZM127.956 224.86C129.596 224.86 130.676 222.76 130.676 219.6C130.676 216.44 129.596 214.34 127.956 214.34C126.316 214.34 125.236 216.44 125.236 219.6C125.236 222.76 126.316 224.86 127.956 224.86Z" fill="#1A1A1E"/>
<path d="M52.8947 284V282.22L57.4747 277.26C58.2547 276.4 59.9147 274.72 59.9147 273.18C59.9147 272.08 59.1347 271.34 57.9947 271.34C56.7347 271.34 55.9147 272.24 55.9147 273.56L53.0547 273.3C53.0547 270.72 54.9947 269 57.9147 269C60.8347 269 62.7547 270.56 62.7547 272.96C62.7547 275.06 61.3147 276.76 59.3347 278.84L56.5747 281.72L62.9347 281.66V284H52.8947ZM70.5106 284.2C67.1306 284.2 64.8706 281.16 64.8706 276.6C64.8706 272.04 67.1306 269 70.5106 269C73.8906 269 76.1306 272.04 76.1306 276.6C76.1306 281.16 73.8906 284.2 70.5106 284.2ZM70.5106 281.86C72.1506 281.86 73.2306 279.76 73.2306 276.6C73.2306 273.44 72.1506 271.34 70.5106 271.34C68.8706 271.34 67.7906 273.44 67.7906 276.6C67.7906 279.76 68.8706 281.86 70.5106 281.86ZM83.7333 284.2C80.3533 284.2 78.0933 281.16 78.0933 276.6C78.0933 272.04 80.3533 269 83.7333 269C87.1133 269 89.3533 272.04 89.3533 276.6C89.3533 281.16 87.1133 284.2 83.7333 284.2ZM83.7333 281.86C85.3733 281.86 86.4533 279.76 86.4533 276.6C86.4533 273.44 85.3733 271.34 83.7333 271.34C82.0933 271.34 81.0133 273.44 81.0133 276.6C81.0133 279.76 82.0933 281.86 83.7333 281.86ZM101.897 284.2C98.5173 284.2 96.2573 281.16 96.2573 276.6C96.2573 272.04 98.5173 269 101.897 269C105.277 269 107.517 272.04 107.517 276.6C107.517 281.16 105.277 284.2 101.897 284.2ZM101.897 281.86C103.537 281.86 104.617 279.76 104.617 276.6C104.617 273.44 103.537 271.34 101.897 271.34C100.257 271.34 99.1773 273.44 99.1773 276.6C99.1773 279.76 100.257 281.86 101.897 281.86ZM115.12 284.2C111.74 284.2 109.48 281.16 109.48 276.6C109.48 272.04 111.74 269 115.12 269C118.5 269 120.74 272.04 120.74 276.6C120.74 281.16 118.5 284.2 115.12 284.2ZM115.12 281.86C116.76 281.86 117.84 279.76 117.84 276.6C117.84 273.44 116.76 271.34 115.12 271.34C113.48 271.34 112.4 273.44 112.4 276.6C112.4 279.76 113.48 281.86 115.12 281.86ZM128.343 284.2C124.963 284.2 122.703 281.16 122.703 276.6C122.703 272.04 124.963 269 128.343 269C131.723 269 133.963 272.04 133.963 276.6C133.963 281.16 131.723 284.2 128.343 284.2ZM128.343 281.86C129.983 281.86 131.063 279.76 131.063 276.6C131.063 273.44 129.983 271.34 128.343 271.34C126.703 271.34 125.623 273.44 125.623 276.6C125.623 279.76 126.703 281.86 128.343 281.86Z" fill="#1A1A1E"/>
<path d="M63.0455 341V328.54H60.7455V326.2H65.8655V341H63.0455ZM68.0279 326.2H78.0479L73.0479 341H70.0679L74.3879 328.54H68.0279V326.2ZM83.3491 341.2C81.5091 341.2 79.9291 340.76 78.8891 339.88L79.7291 337.84C80.5891 338.54 81.8291 338.86 83.0891 338.86C85.0891 338.86 86.4291 337.8 86.4291 336.22C86.4291 334.86 85.4891 333.96 84.0491 333.96C83.1691 333.96 82.3491 334.26 81.8691 334.68L79.9891 334.42L81.0091 326.2H88.6091V328.54H83.4291L82.9291 331.84C83.3491 331.72 83.8891 331.62 84.5491 331.62C87.3491 331.62 89.3491 333.38 89.3491 336.02C89.3491 339.14 86.8891 341.2 83.3491 341.2ZM101.766 341.2C98.3865 341.2 96.1265 338.16 96.1265 333.6C96.1265 329.04 98.3865 326 101.766 326C105.146 326 107.386 329.04 107.386 333.6C107.386 338.16 105.146 341.2 101.766 341.2ZM101.766 338.86C103.406 338.86 104.486 336.76 104.486 333.6C104.486 330.44 103.406 328.34 101.766 328.34C100.126 328.34 99.0465 330.44 99.0465 333.6C99.0465 336.76 100.126 338.86 101.766 338.86ZM114.989 341.2C111.609 341.2 109.349 338.16 109.349 333.6C109.349 329.04 111.609 326 114.989 326C118.369 326 120.609 329.04 120.609 333.6C120.609 338.16 118.369 341.2 114.989 341.2ZM114.989 338.86C116.629 338.86 117.709 336.76 117.709 333.6C117.709 330.44 116.629 328.34 114.989 328.34C113.349 328.34 112.269 330.44 112.269 333.6C112.269 336.76 113.349 338.86 114.989 338.86ZM128.212 341.2C124.832 341.2 122.572 338.16 122.572 333.6C122.572 329.04 124.832 326 128.212 326C131.592 326 133.832 329.04 133.832 333.6C133.832 338.16 131.592 341.2 128.212 341.2ZM128.212 338.86C129.852 338.86 130.932 336.76 130.932 333.6C130.932 330.44 129.852 328.34 128.212 328.34C126.572 328.34 125.492 330.44 125.492 333.6C125.492 336.76 126.572 338.86 128.212 338.86Z" fill="#1A1A1E"/>
<path d="M60.3248 398V385.54H58.0248V383.2H63.1448V398H60.3248ZM69.8472 398.2C68.0072 398.2 66.4272 397.76 65.3872 396.88L66.2272 394.84C67.0872 395.54 68.3272 395.86 69.5872 395.86C71.5872 395.86 72.9272 394.8 72.9272 393.22C72.9272 391.86 71.9872 390.96 70.5472 390.96C69.6672 390.96 68.8472 391.26 68.3672 391.68L66.4872 391.42L67.5072 383.2H75.1072V385.54H69.9272L69.4272 388.84C69.8472 388.72 70.3872 388.62 71.0472 388.62C73.8472 388.62 75.8472 390.38 75.8472 393.02C75.8472 396.14 73.3872 398.2 69.8472 398.2ZM83.3231 398.2C79.9431 398.2 77.6831 395.16 77.6831 390.6C77.6831 386.04 79.9431 383 83.3231 383C86.7031 383 88.9431 386.04 88.9431 390.6C88.9431 395.16 86.7031 398.2 83.3231 398.2ZM83.3231 395.86C84.9631 395.86 86.0431 393.76 86.0431 390.6C86.0431 387.44 84.9631 385.34 83.3231 385.34C81.6831 385.34 80.6031 387.44 80.6031 390.6C80.6031 393.76 81.6831 395.86 83.3231 395.86ZM101.487 398.2C98.1072 398.2 95.8472 395.16 95.8472 390.6C95.8472 386.04 98.1072 383 101.487 383C104.867 383 107.107 386.04 107.107 390.6C107.107 395.16 104.867 398.2 101.487 398.2ZM101.487 395.86C103.127 395.86 104.207 393.76 104.207 390.6C104.207 387.44 103.127 385.34 101.487 385.34C99.8472 385.34 98.7672 387.44 98.7672 390.6C98.7672 393.76 99.8472 395.86 101.487 395.86ZM114.71 398.2C111.33 398.2 109.07 395.16 109.07 390.6C109.07 386.04 111.33 383 114.71 383C118.09 383 120.33 386.04 120.33 390.6C120.33 395.16 118.09 398.2 114.71 398.2ZM114.71 395.86C116.35 395.86 117.43 393.76 117.43 390.6C117.43 387.44 116.35 385.34 114.71 385.34C113.07 385.34 111.99 387.44 111.99 390.6C111.99 393.76 113.07 395.86 114.71 395.86ZM127.933 398.2C124.553 398.2 122.293 395.16 122.293 390.6C122.293 386.04 124.553 383 127.933 383C131.312 383 133.553 386.04 133.553 390.6C133.553 395.16 131.312 398.2 127.933 398.2ZM127.933 395.86C129.573 395.86 130.653 393.76 130.653 390.6C130.653 387.44 129.573 385.34 127.933 385.34C126.293 385.34 125.213 387.44 125.213 390.6C125.213 393.76 126.293 395.86 127.933 395.86Z" fill="#1A1A1E"/>
<path d="M60.3248 455V442.54H58.0248V440.2H63.1448V455H60.3248ZM65.7072 455V453.22L70.2872 448.26C71.0672 447.4 72.7272 445.72 72.7272 444.18C72.7272 443.08 71.9472 442.34 70.8072 442.34C69.5472 442.34 68.7272 443.24 68.7272 444.56L65.8672 444.3C65.8672 441.72 67.8072 440 70.7272 440C73.6472 440 75.5672 441.56 75.5672 443.96C75.5672 446.06 74.1272 447.76 72.1472 449.84L69.3872 452.72L75.7472 452.66V455H65.7072ZM83.3231 455.2C79.9431 455.2 77.6831 452.16 77.6831 447.6C77.6831 443.04 79.9431 440 83.3231 440C86.7031 440 88.9431 443.04 88.9431 447.6C88.9431 452.16 86.7031 455.2 83.3231 455.2ZM83.3231 452.86C84.9631 452.86 86.0431 450.76 86.0431 447.6C86.0431 444.44 84.9631 442.34 83.3231 442.34C81.6831 442.34 80.6031 444.44 80.6031 447.6C80.6031 450.76 81.6831 452.86 83.3231 452.86ZM101.487 455.2C98.1072 455.2 95.8472 452.16 95.8472 447.6C95.8472 443.04 98.1072 440 101.487 440C104.867 440 107.107 443.04 107.107 447.6C107.107 452.16 104.867 455.2 101.487 455.2ZM101.487 452.86C103.127 452.86 104.207 450.76 104.207 447.6C104.207 444.44 103.127 442.34 101.487 442.34C99.8472 442.34 98.7672 444.44 98.7672 447.6C98.7672 450.76 99.8472 452.86 101.487 452.86ZM114.71 455.2C111.33 455.2 109.07 452.16 109.07 447.6C109.07 443.04 111.33 440 114.71 440C118.09 440 120.33 443.04 120.33 447.6C120.33 452.16 118.09 455.2 114.71 455.2ZM114.71 452.86C116.35 452.86 117.43 450.76 117.43 447.6C117.43 444.44 116.35 442.34 114.71 442.34C113.07 442.34 111.99 444.44 111.99 447.6C111.99 450.76 113.07 452.86 114.71 452.86ZM127.933 455.2C124.553 455.2 122.293 452.16 122.293 447.6C122.293 443.04 124.553 440 127.933 440C131.312 440 133.553 443.04 133.553 447.6C133.553 452.16 131.312 455.2 127.933 455.2ZM127.933 452.86C129.573 452.86 130.653 450.76 130.653 447.6C130.653 444.44 129.573 442.34 127.933 442.34C126.293 442.34 125.213 444.44 125.213 447.6C125.213 450.76 126.293 452.86 127.933 452.86Z" fill="#1A1A1E"/>
<path d="M250.457 527V525.22L255.037 520.26C255.817 519.4 257.477 517.72 257.477 516.18C257.477 515.08 256.697 514.34 255.557 514.34C254.297 514.34 253.477 515.24 253.477 516.56L250.617 516.3C250.617 513.72 252.557 512 255.477 512C258.397 512 260.317 513.56 260.317 515.96C260.317 518.06 258.877 519.76 256.897 521.84L254.137 524.72L260.497 524.66V527H250.457ZM268.073 527.2C264.693 527.2 262.433 524.16 262.433 519.6C262.433 515.04 264.693 512 268.073 512C271.453 512 273.693 515.04 273.693 519.6C273.693 524.16 271.453 527.2 268.073 527.2ZM268.073 524.86C269.713 524.86 270.793 522.76 270.793 519.6C270.793 516.44 269.713 514.34 268.073 514.34C266.433 514.34 265.353 516.44 265.353 519.6C265.353 522.76 266.433 524.86 268.073 524.86ZM277.536 527V514.54H275.236V512.2H280.356V527H277.536ZM290.998 519.3C292.498 519.98 293.398 521.24 293.398 522.86C293.398 525.46 291.338 527.2 288.238 527.2C285.118 527.2 283.058 525.48 283.058 522.92C283.058 521.28 283.958 520 285.458 519.3C284.198 518.66 283.458 517.52 283.458 516.08C283.458 513.62 285.358 512 288.238 512C291.098 512 292.998 513.62 292.998 516.04C292.998 517.48 292.258 518.64 290.998 519.3ZM288.218 514.34C287.098 514.34 286.358 515.12 286.358 516.26C286.358 517.42 287.098 518.18 288.218 518.18C289.338 518.18 290.078 517.42 290.078 516.26C290.078 515.12 289.338 514.34 288.218 514.34ZM288.218 524.86C289.578 524.86 290.478 524 290.478 522.7C290.478 521.38 289.578 520.5 288.218 520.5C286.858 520.5 285.958 521.38 285.958 522.7C285.958 524 286.858 524.86 288.218 524.86Z" fill="#1A1A1E"/>
<path d="M388.564 527V525.22L393.144 520.26C393.924 519.4 395.584 517.72 395.584 516.18C395.584 515.08 394.804 514.34 393.664 514.34C392.404 514.34 391.584 515.24 391.584 516.56L388.724 516.3C388.724 513.72 390.664 512 393.584 512C396.504 512 398.424 513.56 398.424 515.96C398.424 518.06 396.984 519.76 395.004 521.84L392.244 524.72L398.604 524.66V527H388.564ZM406.18 527.2C402.8 527.2 400.54 524.16 400.54 519.6C400.54 515.04 402.8 512 406.18 512C409.56 512 411.8 515.04 411.8 519.6C411.8 524.16 409.56 527.2 406.18 527.2ZM406.18 524.86C407.82 524.86 408.9 522.76 408.9 519.6C408.9 516.44 407.82 514.34 406.18 514.34C404.54 514.34 403.46 516.44 403.46 519.6C403.46 522.76 404.54 524.86 406.18 524.86ZM415.643 527V514.54H413.343V512.2H418.463V527H415.643ZM425.965 512C429.065 512 431.145 513.88 431.145 516.7C431.145 518.4 430.565 519.66 429.545 521.08L425.365 527H422.185L426.505 521.18C426.185 521.24 425.805 521.26 425.385 521.26C422.865 521.26 420.785 519.46 420.785 516.74C420.785 513.9 422.865 512 425.965 512ZM423.725 516.72C423.725 518.14 424.625 519.12 425.985 519.12C427.325 519.12 428.245 518.14 428.245 516.72C428.245 515.28 427.325 514.34 425.985 514.34C424.625 514.34 423.725 515.28 423.725 516.72Z" fill="#1A1A1E"/>
<path d="M523.448 527V525.22L528.028 520.26C528.808 519.4 530.468 517.72 530.468 516.18C530.468 515.08 529.688 514.34 528.548 514.34C527.288 514.34 526.468 515.24 526.468 516.56L523.608 516.3C523.608 513.72 525.548 512 528.468 512C531.388 512 533.308 513.56 533.308 515.96C533.308 518.06 531.868 519.76 529.888 521.84L527.128 524.72L533.488 524.66V527H523.448ZM541.064 527.2C537.684 527.2 535.424 524.16 535.424 519.6C535.424 515.04 537.684 512 541.064 512C544.444 512 546.684 515.04 546.684 519.6C546.684 524.16 544.444 527.2 541.064 527.2ZM541.064 524.86C542.704 524.86 543.784 522.76 543.784 519.6C543.784 516.44 542.704 514.34 541.064 514.34C539.424 514.34 538.344 516.44 538.344 519.6C538.344 522.76 539.424 524.86 541.064 524.86ZM548.507 527V525.22L553.087 520.26C553.867 519.4 555.527 517.72 555.527 516.18C555.527 515.08 554.747 514.34 553.607 514.34C552.347 514.34 551.527 515.24 551.527 516.56L548.667 516.3C548.667 513.72 550.607 512 553.527 512C556.447 512 558.367 513.56 558.367 515.96C558.367 518.06 556.927 519.76 554.947 521.84L552.187 524.72L558.547 524.66V527H548.507ZM566.123 527.2C562.743 527.2 560.483 524.16 560.483 519.6C560.483 515.04 562.743 512 566.123 512C569.503 512 571.743 515.04 571.743 519.6C571.743 524.16 569.503 527.2 566.123 527.2ZM566.123 524.86C567.763 524.86 568.843 522.76 568.843 519.6C568.843 516.44 567.763 514.34 566.123 514.34C564.483 514.34 563.403 516.44 563.403 519.6C563.403 522.76 564.483 524.86 566.123 524.86Z" fill="#1A1A1E"/>
<path d="M664.192 527V525.22L668.772 520.26C669.552 519.4 671.212 517.72 671.212 516.18C671.212 515.08 670.432 514.34 669.292 514.34C668.032 514.34 667.212 515.24 667.212 516.56L664.352 516.3C664.352 513.72 666.292 512 669.212 512C672.132 512 674.052 513.56 674.052 515.96C674.052 518.06 672.612 519.76 670.632 521.84L667.872 524.72L674.232 524.66V527H664.192ZM681.808 527.2C678.428 527.2 676.168 524.16 676.168 519.6C676.168 515.04 678.428 512 681.808 512C685.188 512 687.428 515.04 687.428 519.6C687.428 524.16 685.188 527.2 681.808 527.2ZM681.808 524.86C683.448 524.86 684.528 522.76 684.528 519.6C684.528 516.44 683.448 514.34 681.808 514.34C680.168 514.34 679.088 516.44 679.088 519.6C679.088 522.76 680.168 524.86 681.808 524.86ZM689.25 527V525.22L693.83 520.26C694.61 519.4 696.27 517.72 696.27 516.18C696.27 515.08 695.49 514.34 694.35 514.34C693.09 514.34 692.27 515.24 692.27 516.56L689.41 516.3C689.41 513.72 691.35 512 694.27 512C697.19 512 699.11 513.56 699.11 515.96C699.11 518.06 697.67 519.76 695.69 521.84L692.93 524.72L699.29 524.66V527H689.25ZM703.106 527V514.54H700.806V512.2H705.926V527H703.106Z" fill="#1A1A1E"/>
<path d="M799.808 527V525.22L804.388 520.26C805.168 519.4 806.828 517.72 806.828 516.18C806.828 515.08 806.048 514.34 804.908 514.34C803.648 514.34 802.828 515.24 802.828 516.56L799.968 516.3C799.968 513.72 801.908 512 804.828 512C807.748 512 809.668 513.56 809.668 515.96C809.668 518.06 808.228 519.76 806.248 521.84L803.488 524.72L809.848 524.66V527H799.808ZM817.424 527.2C814.044 527.2 811.784 524.16 811.784 519.6C811.784 515.04 814.044 512 817.424 512C820.804 512 823.044 515.04 823.044 519.6C823.044 524.16 820.804 527.2 817.424 527.2ZM817.424 524.86C819.064 524.86 820.144 522.76 820.144 519.6C820.144 516.44 819.064 514.34 817.424 514.34C815.784 514.34 814.704 516.44 814.704 519.6C814.704 522.76 815.784 524.86 817.424 524.86ZM824.867 527V525.22L829.447 520.26C830.227 519.4 831.887 517.72 831.887 516.18C831.887 515.08 831.107 514.34 829.967 514.34C828.707 514.34 827.887 515.24 827.887 516.56L825.027 516.3C825.027 513.72 826.967 512 829.887 512C832.807 512 834.727 513.56 834.727 515.96C834.727 518.06 833.287 519.76 831.307 521.84L828.547 524.72L834.907 524.66V527H824.867ZM836.703 527V525.22L841.283 520.26C842.063 519.4 843.723 517.72 843.723 516.18C843.723 515.08 842.943 514.34 841.803 514.34C840.543 514.34 839.723 515.24 839.723 516.56L836.863 516.3C836.863 513.72 838.803 512 841.723 512C844.643 512 846.563 513.56 846.563 515.96C846.563 518.06 845.123 519.76 843.143 521.84L840.383 524.72L846.743 524.66V527H836.703Z" fill="#1A1A1E"/>
<path d="M937.739 527V525.22L942.319 520.26C943.099 519.4 944.759 517.72 944.759 516.18C944.759 515.08 943.979 514.34 942.839 514.34C941.579 514.34 940.759 515.24 940.759 516.56L937.899 516.3C937.899 513.72 939.839 512 942.759 512C945.679 512 947.599 513.56 947.599 515.96C947.599 518.06 946.159 519.76 944.179 521.84L941.419 524.72L947.779 524.66V527H937.739ZM955.355 527.2C951.975 527.2 949.715 524.16 949.715 519.6C949.715 515.04 951.975 512 955.355 512C958.735 512 960.975 515.04 960.975 519.6C960.975 524.16 958.735 527.2 955.355 527.2ZM955.355 524.86C956.995 524.86 958.075 522.76 958.075 519.6C958.075 516.44 956.995 514.34 955.355 514.34C953.715 514.34 952.635 516.44 952.635 519.6C952.635 522.76 953.715 524.86 955.355 524.86ZM962.798 527V525.22L967.378 520.26C968.158 519.4 969.818 517.72 969.818 516.18C969.818 515.08 969.038 514.34 967.898 514.34C966.638 514.34 965.818 515.24 965.818 516.56L962.958 516.3C962.958 513.72 964.898 512 967.818 512C970.738 512 972.658 513.56 972.658 515.96C972.658 518.06 971.218 519.76 969.238 521.84L966.478 524.72L972.838 524.66V527H962.798ZM979.994 518.02C982.754 518.08 984.574 519.86 984.574 522.46C984.574 525.3 982.414 527.2 978.934 527.2C977.114 527.2 975.374 526.66 974.414 525.72L975.474 523.66C976.194 524.42 977.334 524.86 978.614 524.86C980.494 524.86 981.654 523.9 981.654 522.48C981.654 521.06 980.534 520.16 978.834 520.16C978.074 520.16 977.414 520.32 976.814 520.64L976.054 519.22L980.134 514.54H975.094V512.2H983.814V513.96L979.994 518.02Z" fill="#1A1A1E"/>
<path d="M1074.98 527V525.22L1079.56 520.26C1080.34 519.4 1082 517.72 1082 516.18C1082 515.08 1081.22 514.34 1080.08 514.34C1078.82 514.34 1078 515.24 1078 516.56L1075.14 516.3C1075.14 513.72 1077.08 512 1080 512C1082.92 512 1084.84 513.56 1084.84 515.96C1084.84 518.06 1083.4 519.76 1081.42 521.84L1078.66 524.72L1085.02 524.66V527H1074.98ZM1092.59 527.2C1089.21 527.2 1086.95 524.16 1086.95 519.6C1086.95 515.04 1089.21 512 1092.59 512C1095.97 512 1098.21 515.04 1098.21 519.6C1098.21 524.16 1095.97 527.2 1092.59 527.2ZM1092.59 524.86C1094.23 524.86 1095.31 522.76 1095.31 519.6C1095.31 516.44 1094.23 514.34 1092.59 514.34C1090.95 514.34 1089.87 516.44 1089.87 519.6C1089.87 522.76 1090.95 524.86 1092.59 524.86ZM1100.04 527V525.22L1104.62 520.26C1105.4 519.4 1107.06 517.72 1107.06 516.18C1107.06 515.08 1106.28 514.34 1105.14 514.34C1103.88 514.34 1103.06 515.24 1103.06 516.56L1100.2 516.3C1100.2 513.72 1102.14 512 1105.06 512C1107.98 512 1109.9 513.56 1109.9 515.96C1109.9 518.06 1108.46 519.76 1106.48 521.84L1103.72 524.72L1110.08 524.66V527H1100.04ZM1118.31 527V524.14H1111.45V522.2L1118.93 512.2H1121.13V521.8H1123.17V524.14H1121.13V527H1118.31ZM1114.77 521.88H1118.39L1118.43 517L1114.77 521.88Z" fill="#1A1A1E"/>
<path d="M670.732 561.24V565.32H663.916V579H658.972V561.24H670.732ZM681.163 579.24C675.283 579.24 671.371 575.592 671.371 570.12C671.371 564.648 675.283 561 681.163 561C686.995 561 690.907 564.648 690.907 570.12C690.907 575.592 686.995 579.24 681.163 579.24ZM681.163 575.16C683.947 575.16 685.819 573.144 685.819 570.12C685.819 567.096 683.947 565.08 681.163 565.08C678.355 565.08 676.483 567.096 676.483 570.12C676.483 573.144 678.355 575.16 681.163 575.16ZM711.24 574.92H714.36V581.4H709.416V579H696.6V581.4H691.656V574.92H693.336C694.344 574.92 695.064 574.248 695.136 573.24L695.976 561.24H711.24V574.92ZM699.384 574.92H706.296V565.32H700.632L700.104 572.76C700.056 573.552 699.792 574.296 699.384 574.92Z" fill="#1A1A1E"/>
<path d="M18 369.454L10.992 374.83V374.854H18V379.798H0.24V374.854H6.792L0.24 369.862V363.958L8.88 370.75L18 363.55V369.454ZM18.24 354.49C18.24 360.37 14.592 364.282 9.12 364.282C3.648 364.282 -1.43051e-06 360.37 -1.43051e-06 354.49C-1.43051e-06 348.658 3.648 344.746 9.12 344.746C14.592 344.746 18.24 348.658 18.24 354.49ZM14.16 354.49C14.16 351.706 12.144 349.834 9.12 349.834C6.096 349.834 4.08 351.706 4.08 354.49C4.08 357.298 6.096 359.17 9.12 359.17C12.144 359.17 14.16 357.298 14.16 354.49ZM0.24 325.469H18V330.413H4.32V336.053L12.672 336.629C16.008 336.845 18.24 339.533 18.24 343.373H13.92C13.92 342.365 13.248 341.645 12.24 341.573L0.24 340.733L0.24 325.469ZM12.672 322.364H9.288V312.404H12.672V322.364ZM8.472 297.322C9.24 295.402 10.728 294.25 12.624 294.25C15.84 294.25 18 296.89 18 300.898V309.298H0.24L0.24 300.706C0.24 297.49 2.16 295.33 5.064 295.33C6.432 295.33 7.608 296.05 8.472 297.322ZM4.32 304.354H6.84V301.93C6.84 301.018 6.336 300.418 5.568 300.418C4.824 300.418 4.32 300.994 4.32 301.81V304.354ZM13.92 301.138C13.92 300.058 13.32 299.338 12.408 299.338C11.52 299.338 10.92 300.058 10.92 301.09V304.354H13.92V301.138ZM18.24 282.912C18.24 288.792 14.592 292.704 9.12 292.704C3.648 292.704 -1.43051e-06 288.792 -1.43051e-06 282.912C-1.43051e-06 277.08 3.648 273.168 9.12 273.168C14.592 273.168 18.24 277.08 18.24 282.912ZM14.16 282.912C14.16 280.128 12.144 278.256 9.12 278.256C6.096 278.256 4.08 280.128 4.08 282.912C4.08 285.72 6.096 287.592 9.12 287.592C12.144 287.592 14.16 285.72 14.16 282.912ZM8.496 255.495C9.288 253.431 10.752 252.183 12.624 252.183C15.984 252.183 18.24 255.207 18.24 259.791C18.24 262.119 17.64 264.423 15.84 266.751L12.48 264.351C13.728 262.911 14.16 261.471 14.16 260.031C14.16 258.375 13.464 257.271 12.408 257.271C11.376 257.271 10.68 258.279 10.68 259.743V261.951H7.08V260.583C7.08 259.239 6.48 258.351 5.568 258.351C4.68 258.351 4.08 259.311 4.08 260.703C4.08 261.759 4.368 262.815 5.28 263.871L2.16 266.031C0.527999 263.895 -1.43051e-06 261.735 -1.43051e-06 259.599C-1.43051e-06 255.807 2.016 253.263 5.064 253.263C6.456 253.263 7.656 254.079 8.496 255.495ZM18 238.024L15.576 238.936V245.848L18 246.76V252.04L0.24 244.672L0.24 240.088L18 232.744L18 238.024ZM11.496 244.288V240.472L6.408 242.368L11.496 244.288ZM0.24 231.11L0.24 213.206H18V218.15H4.32L4.32 226.166H18V231.11H0.24ZM0.24 201.651C0.24 197.667 2.664 195.027 6.312 195.027C10.152 195.027 12.72 197.763 12.72 201.915V204.651H18V209.595H0.24V201.651ZM8.64 202.155C8.64 200.811 7.776 200.115 6.48 200.115C5.184 200.115 4.32 200.907 4.32 202.155V204.651H8.64V202.155ZM18.24 183.888C18.24 189.768 14.592 193.68 9.12 193.68C3.648 193.68 -1.43051e-06 189.768 -1.43051e-06 183.888C-1.43051e-06 178.056 3.648 174.144 9.12 174.144C14.592 174.144 18.24 178.056 18.24 183.888ZM14.16 183.888C14.16 181.104 12.144 179.232 9.12 179.232C6.096 179.232 4.08 181.104 4.08 183.888C4.08 186.696 6.096 188.568 9.12 188.568C12.144 188.568 14.16 186.696 14.16 183.888ZM18.24 162.724C18.24 168.604 14.592 172.516 9.12 172.516C3.648 172.516 -1.43051e-06 168.604 -1.43051e-06 162.724C-1.43051e-06 161.356 0.215999 160.108 0.767999 158.956H5.256C4.512 159.748 4.08 161.044 4.08 162.652C4.08 165.508 6.096 167.404 9.12 167.404C12.144 167.404 14.16 165.508 14.16 162.652C14.16 161.044 13.704 159.748 12.984 158.956H17.472C18.024 160.108 18.24 161.356 18.24 162.724ZM18.24 147.537C18.24 153.417 14.592 157.329 9.12 157.329C3.648 157.329 -1.43051e-06 153.417 -1.43051e-06 147.537C-1.43051e-06 141.705 3.648 137.793 9.12 137.793C14.592 137.793 18.24 141.705 18.24 147.537ZM14.16 147.537C14.16 144.753 12.144 142.881 9.12 142.881C6.096 142.881 4.08 144.753 4.08 147.537C4.08 150.345 6.096 152.217 9.12 152.217C12.144 152.217 14.16 150.345 14.16 147.537ZM8.472 123.204C9.24 121.284 10.728 120.132 12.624 120.132C15.84 120.132 18 122.772 18 126.78V135.18H0.24L0.24 126.588C0.24 123.372 2.16 121.212 5.064 121.212C6.432 121.212 7.608 121.932 8.472 123.204ZM4.32 130.236H6.84V127.812C6.84 126.9 6.336 126.3 5.568 126.3C4.824 126.3 4.32 126.876 4.32 127.692V130.236ZM13.92 127.02C13.92 125.94 13.32 125.22 12.408 125.22C11.52 125.22 10.92 125.94 10.92 126.972V130.236H13.92V127.02Z" fill="#1A1A1E"/>
</svg>
