<svg width="1673" height="582" viewBox="0 0 1673 582" fill="none" xmlns="http://www.w3.org/2000/svg">
<rect x="143.5" y="0.5" width="1529" height="499" rx="39.5" stroke="#C8C9CC"/>
<rect x="143" y="48" width="1530" height="1" fill="#C8C9CC"/>
<rect x="143" y="115.167" width="1530" height="1" fill="#C8C9CC"/>
<rect x="143" y="182.333" width="1530" height="1" fill="#C8C9CC"/>
<rect x="143" y="249.5" width="1530" height="1" fill="#C8C9CC"/>
<rect x="143" y="316.667" width="1530" height="1" fill="#C8C9CC"/>
<rect x="143" y="383.833" width="1530" height="1" fill="#C8C9CC"/>
<rect x="143" y="451" width="1530" height="1" fill="#C8C9CC"/>
<rect x="272" width="1" height="500" fill="#C8C9CC"/>
<rect x="483.833" width="1" height="500" fill="#C8C9CC"/>
<rect x="695.667" width="1" height="500" fill="#C8C9CC"/>
<rect x="907.5" width="1" height="500" fill="#C8C9CC"/>
<rect x="1119.33" width="1" height="500" fill="#C8C9CC"/>
<rect x="1331.17" width="1" height="500" fill="#C8C9CC"/>
<rect x="1543" width="1" height="500" fill="#C8C9CC"/>
<path d="M272 451.5L484 384L696 355.5L908.5 295.5L1120 204.5L1331.5 140.5L1543 58.5" stroke="#F5313C" stroke-width="8" stroke-linecap="round" stroke-linejoin="round"/>
<path d="M59.3366 56V53.14H52.4766V51.2L59.9566 41.2H62.1566V50.8H64.1966V53.14H62.1566V56H59.3366ZM55.7966 50.88H59.4166L59.4566 46L55.7966 50.88ZM71.5087 56.2C68.1287 56.2 65.8687 53.16 65.8687 48.6C65.8687 44.04 68.1287 41 71.5087 41C74.8887 41 77.1287 44.04 77.1287 48.6C77.1287 53.16 74.8887 56.2 71.5087 56.2ZM71.5087 53.86C73.1487 53.86 74.2287 51.76 74.2287 48.6C74.2287 45.44 73.1487 43.34 71.5087 43.34C69.8687 43.34 68.7887 45.44 68.7887 48.6C68.7887 51.76 69.8687 53.86 71.5087 53.86ZM84.7313 56.2C81.3513 56.2 79.0913 53.16 79.0913 48.6C79.0913 44.04 81.3513 41 84.7313 41C88.1113 41 90.3513 44.04 90.3513 48.6C90.3513 53.16 88.1113 56.2 84.7313 56.2ZM84.7313 53.86C86.3713 53.86 87.4513 51.76 87.4513 48.6C87.4513 45.44 86.3713 43.34 84.7313 43.34C83.0913 43.34 82.0113 45.44 82.0113 48.6C82.0113 51.76 83.0913 53.86 84.7313 53.86ZM102.895 56.2C99.5154 56.2 97.2554 53.16 97.2554 48.6C97.2554 44.04 99.5154 41 102.895 41C106.275 41 108.515 44.04 108.515 48.6C108.515 53.16 106.275 56.2 102.895 56.2ZM102.895 53.86C104.535 53.86 105.615 51.76 105.615 48.6C105.615 45.44 104.535 43.34 102.895 43.34C101.255 43.34 100.175 45.44 100.175 48.6C100.175 51.76 101.255 53.86 102.895 53.86ZM116.118 56.2C112.738 56.2 110.478 53.16 110.478 48.6C110.478 44.04 112.738 41 116.118 41C119.498 41 121.738 44.04 121.738 48.6C121.738 53.16 119.498 56.2 116.118 56.2ZM116.118 53.86C117.758 53.86 118.838 51.76 118.838 48.6C118.838 45.44 117.758 43.34 116.118 43.34C114.478 43.34 113.398 45.44 113.398 48.6C113.398 51.76 114.478 53.86 116.118 53.86ZM129.341 56.2C125.961 56.2 123.701 53.16 123.701 48.6C123.701 44.04 125.961 41 129.341 41C132.721 41 134.961 44.04 134.961 48.6C134.961 53.16 132.721 56.2 129.341 56.2ZM129.341 53.86C130.981 53.86 132.061 51.76 132.061 48.6C132.061 45.44 130.981 43.34 129.341 43.34C127.701 43.34 126.621 45.44 126.621 48.6C126.621 51.76 127.701 53.86 129.341 53.86Z" fill="#1A1A1E"/>
<path d="M60.5457 114.02C63.3057 114.08 65.1257 115.86 65.1257 118.46C65.1257 121.3 62.9657 123.2 59.4857 123.2C57.6657 123.2 55.9257 122.66 54.9657 121.72L56.0257 119.66C56.7457 120.42 57.8857 120.86 59.1657 120.86C61.0457 120.86 62.2057 119.9 62.2057 118.48C62.2057 117.06 61.0857 116.16 59.3857 116.16C58.6257 116.16 57.9657 116.32 57.3657 116.64L56.6057 115.22L60.6857 110.54H55.6457V108.2H64.3657V109.96L60.5457 114.02ZM70.9663 123.2C69.1263 123.2 67.5463 122.76 66.5063 121.88L67.3463 119.84C68.2063 120.54 69.4463 120.86 70.7063 120.86C72.7063 120.86 74.0463 119.8 74.0463 118.22C74.0463 116.86 73.1063 115.96 71.6663 115.96C70.7863 115.96 69.9663 116.26 69.4863 116.68L67.6063 116.42L68.6263 108.2H76.2263V110.54H71.0463L70.5463 113.84C70.9663 113.72 71.5063 113.62 72.1663 113.62C74.9663 113.62 76.9663 115.38 76.9663 118.02C76.9663 121.14 74.5063 123.2 70.9663 123.2ZM84.4423 123.2C81.0623 123.2 78.8023 120.16 78.8023 115.6C78.8023 111.04 81.0623 108 84.4423 108C87.8223 108 90.0623 111.04 90.0623 115.6C90.0623 120.16 87.8223 123.2 84.4423 123.2ZM84.4423 120.86C86.0823 120.86 87.1623 118.76 87.1623 115.6C87.1623 112.44 86.0823 110.34 84.4423 110.34C82.8023 110.34 81.7223 112.44 81.7223 115.6C81.7223 118.76 82.8023 120.86 84.4423 120.86ZM102.606 123.2C99.2263 123.2 96.9663 120.16 96.9663 115.6C96.9663 111.04 99.2263 108 102.606 108C105.986 108 108.226 111.04 108.226 115.6C108.226 120.16 105.986 123.2 102.606 123.2ZM102.606 120.86C104.246 120.86 105.326 118.76 105.326 115.6C105.326 112.44 104.246 110.34 102.606 110.34C100.966 110.34 99.8863 112.44 99.8863 115.6C99.8863 118.76 100.966 120.86 102.606 120.86ZM115.829 123.2C112.449 123.2 110.189 120.16 110.189 115.6C110.189 111.04 112.449 108 115.829 108C119.209 108 121.449 111.04 121.449 115.6C121.449 120.16 119.209 123.2 115.829 123.2ZM115.829 120.86C117.469 120.86 118.549 118.76 118.549 115.6C118.549 112.44 117.469 110.34 115.829 110.34C114.189 110.34 113.109 112.44 113.109 115.6C113.109 118.76 114.189 120.86 115.829 120.86ZM129.052 123.2C125.672 123.2 123.412 120.16 123.412 115.6C123.412 111.04 125.672 108 129.052 108C132.432 108 134.672 111.04 134.672 115.6C134.672 120.16 132.432 123.2 129.052 123.2ZM129.052 120.86C130.692 120.86 131.772 118.76 131.772 115.6C131.772 112.44 130.692 110.34 129.052 110.34C127.412 110.34 126.332 112.44 126.332 115.6C126.332 118.76 127.412 120.86 129.052 120.86Z" fill="#1A1A1E"/>
<path d="M59.3523 181.02C62.1123 181.08 63.9323 182.86 63.9323 185.46C63.9323 188.3 61.7723 190.2 58.2923 190.2C56.4723 190.2 54.7323 189.66 53.7723 188.72L54.8323 186.66C55.5523 187.42 56.6923 187.86 57.9723 187.86C59.8523 187.86 61.0123 186.9 61.0123 185.48C61.0123 184.06 59.8923 183.16 58.1923 183.16C57.4323 183.16 56.7723 183.32 56.1723 183.64L55.4123 182.22L59.4923 177.54H54.4523V175.2H63.1723V176.96L59.3523 181.02ZM71.413 190.2C68.033 190.2 65.773 187.16 65.773 182.6C65.773 178.04 68.033 175 71.413 175C74.793 175 77.033 178.04 77.033 182.6C77.033 187.16 74.793 190.2 71.413 190.2ZM71.413 187.86C73.053 187.86 74.133 185.76 74.133 182.6C74.133 179.44 73.053 177.34 71.413 177.34C69.773 177.34 68.693 179.44 68.693 182.6C68.693 185.76 69.773 187.86 71.413 187.86ZM84.6356 190.2C81.2556 190.2 78.9956 187.16 78.9956 182.6C78.9956 178.04 81.2556 175 84.6356 175C88.0156 175 90.2556 178.04 90.2556 182.6C90.2556 187.16 88.0156 190.2 84.6356 190.2ZM84.6356 187.86C86.2756 187.86 87.3556 185.76 87.3556 182.6C87.3556 179.44 86.2756 177.34 84.6356 177.34C82.9956 177.34 81.9156 179.44 81.9156 182.6C81.9156 185.76 82.9956 187.86 84.6356 187.86ZM102.8 190.2C99.4197 190.2 97.1597 187.16 97.1597 182.6C97.1597 178.04 99.4197 175 102.8 175C106.18 175 108.42 178.04 108.42 182.6C108.42 187.16 106.18 190.2 102.8 190.2ZM102.8 187.86C104.44 187.86 105.52 185.76 105.52 182.6C105.52 179.44 104.44 177.34 102.8 177.34C101.16 177.34 100.08 179.44 100.08 182.6C100.08 185.76 101.16 187.86 102.8 187.86ZM116.022 190.2C112.642 190.2 110.382 187.16 110.382 182.6C110.382 178.04 112.642 175 116.022 175C119.402 175 121.642 178.04 121.642 182.6C121.642 187.16 119.402 190.2 116.022 190.2ZM116.022 187.86C117.662 187.86 118.742 185.76 118.742 182.6C118.742 179.44 117.662 177.34 116.022 177.34C114.382 177.34 113.302 179.44 113.302 182.6C113.302 185.76 114.382 187.86 116.022 187.86ZM129.245 190.2C125.865 190.2 123.605 187.16 123.605 182.6C123.605 178.04 125.865 175 129.245 175C132.625 175 134.865 178.04 134.865 182.6C134.865 187.16 132.625 190.2 129.245 190.2ZM129.245 187.86C130.885 187.86 131.965 185.76 131.965 182.6C131.965 179.44 130.885 177.34 129.245 177.34C127.605 177.34 126.525 179.44 126.525 182.6C126.525 185.76 127.605 187.86 129.245 187.86Z" fill="#1A1A1E"/>
<path d="M55.088 257V255.22L59.668 250.26C60.448 249.4 62.108 247.72 62.108 246.18C62.108 245.08 61.328 244.34 60.188 244.34C58.928 244.34 58.108 245.24 58.108 246.56L55.248 246.3C55.248 243.72 57.188 242 60.108 242C63.028 242 64.948 243.56 64.948 245.96C64.948 248.06 63.508 249.76 61.528 251.84L58.768 254.72L65.128 254.66V257H55.088ZM71.064 257.2C69.224 257.2 67.644 256.76 66.604 255.88L67.444 253.84C68.304 254.54 69.544 254.86 70.804 254.86C72.804 254.86 74.144 253.8 74.144 252.22C74.144 250.86 73.204 249.96 71.764 249.96C70.884 249.96 70.064 250.26 69.584 250.68L67.704 250.42L68.724 242.2H76.324V244.54H71.144L70.644 247.84C71.064 247.72 71.604 247.62 72.264 247.62C75.064 247.62 77.064 249.38 77.064 252.02C77.064 255.14 74.604 257.2 71.064 257.2ZM84.5399 257.2C81.1599 257.2 78.8999 254.16 78.8999 249.6C78.8999 245.04 81.1599 242 84.5399 242C87.9199 242 90.1599 245.04 90.1599 249.6C90.1599 254.16 87.9199 257.2 84.5399 257.2ZM84.5399 254.86C86.1799 254.86 87.2599 252.76 87.2599 249.6C87.2599 246.44 86.1799 244.34 84.5399 244.34C82.8999 244.34 81.8199 246.44 81.8199 249.6C81.8199 252.76 82.8999 254.86 84.5399 254.86ZM102.704 257.2C99.324 257.2 97.064 254.16 97.064 249.6C97.064 245.04 99.324 242 102.704 242C106.084 242 108.324 245.04 108.324 249.6C108.324 254.16 106.084 257.2 102.704 257.2ZM102.704 254.86C104.344 254.86 105.424 252.76 105.424 249.6C105.424 246.44 104.344 244.34 102.704 244.34C101.064 244.34 99.984 246.44 99.984 249.6C99.984 252.76 101.064 254.86 102.704 254.86ZM115.927 257.2C112.547 257.2 110.287 254.16 110.287 249.6C110.287 245.04 112.547 242 115.927 242C119.307 242 121.547 245.04 121.547 249.6C121.547 254.16 119.307 257.2 115.927 257.2ZM115.927 254.86C117.567 254.86 118.647 252.76 118.647 249.6C118.647 246.44 117.567 244.34 115.927 244.34C114.287 244.34 113.207 246.44 113.207 249.6C113.207 252.76 114.287 254.86 115.927 254.86ZM129.149 257.2C125.769 257.2 123.509 254.16 123.509 249.6C123.509 245.04 125.769 242 129.149 242C132.529 242 134.769 245.04 134.769 249.6C134.769 254.16 132.529 257.2 129.149 257.2ZM129.149 254.86C130.789 254.86 131.869 252.76 131.869 249.6C131.869 246.44 130.789 244.34 129.149 244.34C127.509 244.34 126.429 246.44 126.429 249.6C126.429 252.76 127.509 254.86 129.149 254.86Z" fill="#1A1A1E"/>
<path d="M53.8947 324V322.22L58.4747 317.26C59.2547 316.4 60.9147 314.72 60.9147 313.18C60.9147 312.08 60.1347 311.34 58.9947 311.34C57.7347 311.34 56.9147 312.24 56.9147 313.56L54.0547 313.3C54.0547 310.72 55.9947 309 58.9147 309C61.8347 309 63.7547 310.56 63.7547 312.96C63.7547 315.06 62.3147 316.76 60.3347 318.84L57.5747 321.72L63.9347 321.66V324H53.8947ZM71.5106 324.2C68.1306 324.2 65.8706 321.16 65.8706 316.6C65.8706 312.04 68.1306 309 71.5106 309C74.8906 309 77.1306 312.04 77.1306 316.6C77.1306 321.16 74.8906 324.2 71.5106 324.2ZM71.5106 321.86C73.1506 321.86 74.2306 319.76 74.2306 316.6C74.2306 313.44 73.1506 311.34 71.5106 311.34C69.8706 311.34 68.7906 313.44 68.7906 316.6C68.7906 319.76 69.8706 321.86 71.5106 321.86ZM84.7333 324.2C81.3533 324.2 79.0933 321.16 79.0933 316.6C79.0933 312.04 81.3533 309 84.7333 309C88.1133 309 90.3533 312.04 90.3533 316.6C90.3533 321.16 88.1133 324.2 84.7333 324.2ZM84.7333 321.86C86.3733 321.86 87.4533 319.76 87.4533 316.6C87.4533 313.44 86.3733 311.34 84.7333 311.34C83.0933 311.34 82.0133 313.44 82.0133 316.6C82.0133 319.76 83.0933 321.86 84.7333 321.86ZM102.897 324.2C99.5173 324.2 97.2573 321.16 97.2573 316.6C97.2573 312.04 99.5173 309 102.897 309C106.277 309 108.517 312.04 108.517 316.6C108.517 321.16 106.277 324.2 102.897 324.2ZM102.897 321.86C104.537 321.86 105.617 319.76 105.617 316.6C105.617 313.44 104.537 311.34 102.897 311.34C101.257 311.34 100.177 313.44 100.177 316.6C100.177 319.76 101.257 321.86 102.897 321.86ZM116.12 324.2C112.74 324.2 110.48 321.16 110.48 316.6C110.48 312.04 112.74 309 116.12 309C119.5 309 121.74 312.04 121.74 316.6C121.74 321.16 119.5 324.2 116.12 324.2ZM116.12 321.86C117.76 321.86 118.84 319.76 118.84 316.6C118.84 313.44 117.76 311.34 116.12 311.34C114.48 311.34 113.4 313.44 113.4 316.6C113.4 319.76 114.48 321.86 116.12 321.86ZM129.343 324.2C125.963 324.2 123.703 321.16 123.703 316.6C123.703 312.04 125.963 309 129.343 309C132.723 309 134.963 312.04 134.963 316.6C134.963 321.16 132.723 324.2 129.343 324.2ZM129.343 321.86C130.983 321.86 132.063 319.76 132.063 316.6C132.063 313.44 130.983 311.34 129.343 311.34C127.703 311.34 126.623 313.44 126.623 316.6C126.623 319.76 127.703 321.86 129.343 321.86Z" fill="#1A1A1E"/>
<path d="M61.3248 391V378.54H59.0248V376.2H64.1448V391H61.3248ZM70.8472 391.2C69.0072 391.2 67.4272 390.76 66.3872 389.88L67.2272 387.84C68.0872 388.54 69.3272 388.86 70.5872 388.86C72.5872 388.86 73.9272 387.8 73.9272 386.22C73.9272 384.86 72.9872 383.96 71.5472 383.96C70.6672 383.96 69.8472 384.26 69.3672 384.68L67.4872 384.42L68.5072 376.2H76.1072V378.54H70.9272L70.4272 381.84C70.8472 381.72 71.3872 381.62 72.0472 381.62C74.8472 381.62 76.8472 383.38 76.8472 386.02C76.8472 389.14 74.3872 391.2 70.8472 391.2ZM84.3231 391.2C80.9431 391.2 78.6831 388.16 78.6831 383.6C78.6831 379.04 80.9431 376 84.3231 376C87.7031 376 89.9431 379.04 89.9431 383.6C89.9431 388.16 87.7031 391.2 84.3231 391.2ZM84.3231 388.86C85.9631 388.86 87.0431 386.76 87.0431 383.6C87.0431 380.44 85.9631 378.34 84.3231 378.34C82.6831 378.34 81.6031 380.44 81.6031 383.6C81.6031 386.76 82.6831 388.86 84.3231 388.86ZM102.487 391.2C99.1072 391.2 96.8472 388.16 96.8472 383.6C96.8472 379.04 99.1072 376 102.487 376C105.867 376 108.107 379.04 108.107 383.6C108.107 388.16 105.867 391.2 102.487 391.2ZM102.487 388.86C104.127 388.86 105.207 386.76 105.207 383.6C105.207 380.44 104.127 378.34 102.487 378.34C100.847 378.34 99.7672 380.44 99.7672 383.6C99.7672 386.76 100.847 388.86 102.487 388.86ZM115.71 391.2C112.33 391.2 110.07 388.16 110.07 383.6C110.07 379.04 112.33 376 115.71 376C119.09 376 121.33 379.04 121.33 383.6C121.33 388.16 119.09 391.2 115.71 391.2ZM115.71 388.86C117.35 388.86 118.43 386.76 118.43 383.6C118.43 380.44 117.35 378.34 115.71 378.34C114.07 378.34 112.99 380.44 112.99 383.6C112.99 386.76 114.07 388.86 115.71 388.86ZM128.933 391.2C125.553 391.2 123.293 388.16 123.293 383.6C123.293 379.04 125.553 376 128.933 376C132.312 376 134.553 379.04 134.553 383.6C134.553 388.16 132.312 391.2 128.933 391.2ZM128.933 388.86C130.573 388.86 131.653 386.76 131.653 383.6C131.653 380.44 130.573 378.34 128.933 378.34C127.293 378.34 126.213 380.44 126.213 383.6C126.213 386.76 127.293 388.86 128.933 388.86Z" fill="#1A1A1E"/>
<path d="M60.1315 458V445.54H57.8315V443.2H62.9515V458H60.1315ZM71.2938 458.2C67.9138 458.2 65.6538 455.16 65.6538 450.6C65.6538 446.04 67.9138 443 71.2938 443C74.6738 443 76.9138 446.04 76.9138 450.6C76.9138 455.16 74.6738 458.2 71.2938 458.2ZM71.2938 455.86C72.9338 455.86 74.0138 453.76 74.0138 450.6C74.0138 447.44 72.9338 445.34 71.2938 445.34C69.6538 445.34 68.5738 447.44 68.5738 450.6C68.5738 453.76 69.6538 455.86 71.2938 455.86ZM84.5165 458.2C81.1365 458.2 78.8765 455.16 78.8765 450.6C78.8765 446.04 81.1365 443 84.5165 443C87.8965 443 90.1365 446.04 90.1365 450.6C90.1365 455.16 87.8965 458.2 84.5165 458.2ZM84.5165 455.86C86.1565 455.86 87.2365 453.76 87.2365 450.6C87.2365 447.44 86.1565 445.34 84.5165 445.34C82.8765 445.34 81.7965 447.44 81.7965 450.6C81.7965 453.76 82.8765 455.86 84.5165 455.86ZM102.681 458.2C99.3005 458.2 97.0405 455.16 97.0405 450.6C97.0405 446.04 99.3005 443 102.681 443C106.061 443 108.301 446.04 108.301 450.6C108.301 455.16 106.061 458.2 102.681 458.2ZM102.681 455.86C104.321 455.86 105.401 453.76 105.401 450.6C105.401 447.44 104.321 445.34 102.681 445.34C101.041 445.34 99.9605 447.44 99.9605 450.6C99.9605 453.76 101.041 455.86 102.681 455.86ZM115.903 458.2C112.523 458.2 110.263 455.16 110.263 450.6C110.263 446.04 112.523 443 115.903 443C119.283 443 121.523 446.04 121.523 450.6C121.523 455.16 119.283 458.2 115.903 458.2ZM115.903 455.86C117.543 455.86 118.623 453.76 118.623 450.6C118.623 447.44 117.543 445.34 115.903 445.34C114.263 445.34 113.183 447.44 113.183 450.6C113.183 453.76 114.263 455.86 115.903 455.86ZM129.126 458.2C125.746 458.2 123.486 455.16 123.486 450.6C123.486 446.04 125.746 443 129.126 443C132.506 443 134.746 446.04 134.746 450.6C134.746 455.16 132.506 458.2 129.126 458.2ZM129.126 455.86C130.766 455.86 131.846 453.76 131.846 450.6C131.846 447.44 130.766 445.34 129.126 445.34C127.486 445.34 126.406 447.44 126.406 450.6C126.406 453.76 127.486 455.86 129.126 455.86Z" fill="#1A1A1E"/>
<path d="M250.457 527V525.22L255.037 520.26C255.817 519.4 257.477 517.72 257.477 516.18C257.477 515.08 256.697 514.34 255.557 514.34C254.297 514.34 253.477 515.24 253.477 516.56L250.617 516.3C250.617 513.72 252.557 512 255.477 512C258.397 512 260.317 513.56 260.317 515.96C260.317 518.06 258.877 519.76 256.897 521.84L254.137 524.72L260.497 524.66V527H250.457ZM268.073 527.2C264.693 527.2 262.433 524.16 262.433 519.6C262.433 515.04 264.693 512 268.073 512C271.453 512 273.693 515.04 273.693 519.6C273.693 524.16 271.453 527.2 268.073 527.2ZM268.073 524.86C269.713 524.86 270.793 522.76 270.793 519.6C270.793 516.44 269.713 514.34 268.073 514.34C266.433 514.34 265.353 516.44 265.353 519.6C265.353 522.76 266.433 524.86 268.073 524.86ZM277.536 527V514.54H275.236V512.2H280.356V527H277.536ZM290.998 519.3C292.498 519.98 293.398 521.24 293.398 522.86C293.398 525.46 291.338 527.2 288.238 527.2C285.118 527.2 283.058 525.48 283.058 522.92C283.058 521.28 283.958 520 285.458 519.3C284.198 518.66 283.458 517.52 283.458 516.08C283.458 513.62 285.358 512 288.238 512C291.098 512 292.998 513.62 292.998 516.04C292.998 517.48 292.258 518.64 290.998 519.3ZM288.218 514.34C287.098 514.34 286.358 515.12 286.358 516.26C286.358 517.42 287.098 518.18 288.218 518.18C289.338 518.18 290.078 517.42 290.078 516.26C290.078 515.12 289.338 514.34 288.218 514.34ZM288.218 524.86C289.578 524.86 290.478 524 290.478 522.7C290.478 521.38 289.578 520.5 288.218 520.5C286.858 520.5 285.958 521.38 285.958 522.7C285.958 524 286.858 524.86 288.218 524.86Z" fill="#1A1A1E"/>
<path d="M462.731 527V525.22L467.311 520.26C468.091 519.4 469.751 517.72 469.751 516.18C469.751 515.08 468.971 514.34 467.831 514.34C466.571 514.34 465.751 515.24 465.751 516.56L462.891 516.3C462.891 513.72 464.831 512 467.751 512C470.671 512 472.591 513.56 472.591 515.96C472.591 518.06 471.151 519.76 469.171 521.84L466.411 524.72L472.771 524.66V527H462.731ZM480.347 527.2C476.967 527.2 474.707 524.16 474.707 519.6C474.707 515.04 476.967 512 480.347 512C483.727 512 485.967 515.04 485.967 519.6C485.967 524.16 483.727 527.2 480.347 527.2ZM480.347 524.86C481.987 524.86 483.067 522.76 483.067 519.6C483.067 516.44 481.987 514.34 480.347 514.34C478.707 514.34 477.627 516.44 477.627 519.6C477.627 522.76 478.707 524.86 480.347 524.86ZM489.809 527V514.54H487.509V512.2H492.629V527H489.809ZM500.132 512C503.232 512 505.312 513.88 505.312 516.7C505.312 518.4 504.732 519.66 503.712 521.08L499.532 527H496.352L500.672 521.18C500.352 521.24 499.972 521.26 499.552 521.26C497.032 521.26 494.952 519.46 494.952 516.74C494.952 513.9 497.032 512 500.132 512ZM497.892 516.72C497.892 518.14 498.792 519.12 500.152 519.12C501.492 519.12 502.412 518.14 502.412 516.72C502.412 515.28 501.492 514.34 500.152 514.34C498.792 514.34 497.892 515.28 497.892 516.72Z" fill="#1A1A1E"/>
<path d="M671.781 527V525.22L676.361 520.26C677.141 519.4 678.801 517.72 678.801 516.18C678.801 515.08 678.021 514.34 676.881 514.34C675.621 514.34 674.801 515.24 674.801 516.56L671.941 516.3C671.941 513.72 673.881 512 676.801 512C679.721 512 681.641 513.56 681.641 515.96C681.641 518.06 680.201 519.76 678.221 521.84L675.461 524.72L681.821 524.66V527H671.781ZM689.397 527.2C686.017 527.2 683.757 524.16 683.757 519.6C683.757 515.04 686.017 512 689.397 512C692.777 512 695.017 515.04 695.017 519.6C695.017 524.16 692.777 527.2 689.397 527.2ZM689.397 524.86C691.037 524.86 692.117 522.76 692.117 519.6C692.117 516.44 691.037 514.34 689.397 514.34C687.757 514.34 686.677 516.44 686.677 519.6C686.677 522.76 687.757 524.86 689.397 524.86ZM696.84 527V525.22L701.42 520.26C702.2 519.4 703.86 517.72 703.86 516.18C703.86 515.08 703.08 514.34 701.94 514.34C700.68 514.34 699.86 515.24 699.86 516.56L697 516.3C697 513.72 698.94 512 701.86 512C704.78 512 706.7 513.56 706.7 515.96C706.7 518.06 705.26 519.76 703.28 521.84L700.52 524.72L706.88 524.66V527H696.84ZM714.456 527.2C711.076 527.2 708.816 524.16 708.816 519.6C708.816 515.04 711.076 512 714.456 512C717.836 512 720.076 515.04 720.076 519.6C720.076 524.16 717.836 527.2 714.456 527.2ZM714.456 524.86C716.096 524.86 717.176 522.76 717.176 519.6C717.176 516.44 716.096 514.34 714.456 514.34C712.816 514.34 711.736 516.44 711.736 519.6C711.736 522.76 712.816 524.86 714.456 524.86Z" fill="#1A1A1E"/>
<path d="M886.692 527V525.22L891.272 520.26C892.052 519.4 893.712 517.72 893.712 516.18C893.712 515.08 892.932 514.34 891.792 514.34C890.532 514.34 889.712 515.24 889.712 516.56L886.852 516.3C886.852 513.72 888.792 512 891.712 512C894.632 512 896.552 513.56 896.552 515.96C896.552 518.06 895.112 519.76 893.132 521.84L890.372 524.72L896.732 524.66V527H886.692ZM904.308 527.2C900.928 527.2 898.668 524.16 898.668 519.6C898.668 515.04 900.928 512 904.308 512C907.688 512 909.928 515.04 909.928 519.6C909.928 524.16 907.688 527.2 904.308 527.2ZM904.308 524.86C905.948 524.86 907.028 522.76 907.028 519.6C907.028 516.44 905.948 514.34 904.308 514.34C902.668 514.34 901.588 516.44 901.588 519.6C901.588 522.76 902.668 524.86 904.308 524.86ZM911.75 527V525.22L916.33 520.26C917.11 519.4 918.77 517.72 918.77 516.18C918.77 515.08 917.99 514.34 916.85 514.34C915.59 514.34 914.77 515.24 914.77 516.56L911.91 516.3C911.91 513.72 913.85 512 916.77 512C919.69 512 921.61 513.56 921.61 515.96C921.61 518.06 920.17 519.76 918.19 521.84L915.43 524.72L921.79 524.66V527H911.75ZM925.606 527V514.54H923.306V512.2H928.426V527H925.606Z" fill="#1A1A1E"/>
<path d="M1096.47 527V525.22L1101.05 520.26C1101.83 519.4 1103.49 517.72 1103.49 516.18C1103.49 515.08 1102.71 514.34 1101.57 514.34C1100.31 514.34 1099.49 515.24 1099.49 516.56L1096.63 516.3C1096.63 513.72 1098.57 512 1101.49 512C1104.41 512 1106.33 513.56 1106.33 515.96C1106.33 518.06 1104.89 519.76 1102.91 521.84L1100.15 524.72L1106.51 524.66V527H1096.47ZM1114.09 527.2C1110.71 527.2 1108.45 524.16 1108.45 519.6C1108.45 515.04 1110.71 512 1114.09 512C1117.47 512 1119.71 515.04 1119.71 519.6C1119.71 524.16 1117.47 527.2 1114.09 527.2ZM1114.09 524.86C1115.73 524.86 1116.81 522.76 1116.81 519.6C1116.81 516.44 1115.73 514.34 1114.09 514.34C1112.45 514.34 1111.37 516.44 1111.37 519.6C1111.37 522.76 1112.45 524.86 1114.09 524.86ZM1121.53 527V525.22L1126.11 520.26C1126.89 519.4 1128.55 517.72 1128.55 516.18C1128.55 515.08 1127.77 514.34 1126.63 514.34C1125.37 514.34 1124.55 515.24 1124.55 516.56L1121.69 516.3C1121.69 513.72 1123.63 512 1126.55 512C1129.47 512 1131.39 513.56 1131.39 515.96C1131.39 518.06 1129.95 519.76 1127.97 521.84L1125.21 524.72L1131.57 524.66V527H1121.53ZM1133.37 527V525.22L1137.95 520.26C1138.73 519.4 1140.39 517.72 1140.39 516.18C1140.39 515.08 1139.61 514.34 1138.47 514.34C1137.21 514.34 1136.39 515.24 1136.39 516.56L1133.53 516.3C1133.53 513.72 1135.47 512 1138.39 512C1141.31 512 1143.23 513.56 1143.23 515.96C1143.23 518.06 1141.79 519.76 1139.81 521.84L1137.05 524.72L1143.41 524.66V527H1133.37Z" fill="#1A1A1E"/>
<path d="M1308.57 527V525.22L1313.15 520.26C1313.93 519.4 1315.59 517.72 1315.59 516.18C1315.59 515.08 1314.81 514.34 1313.67 514.34C1312.41 514.34 1311.59 515.24 1311.59 516.56L1308.73 516.3C1308.73 513.72 1310.67 512 1313.59 512C1316.51 512 1318.43 513.56 1318.43 515.96C1318.43 518.06 1316.99 519.76 1315.01 521.84L1312.25 524.72L1318.61 524.66V527H1308.57ZM1326.19 527.2C1322.81 527.2 1320.55 524.16 1320.55 519.6C1320.55 515.04 1322.81 512 1326.19 512C1329.57 512 1331.81 515.04 1331.81 519.6C1331.81 524.16 1329.57 527.2 1326.19 527.2ZM1326.19 524.86C1327.83 524.86 1328.91 522.76 1328.91 519.6C1328.91 516.44 1327.83 514.34 1326.19 514.34C1324.55 514.34 1323.47 516.44 1323.47 519.6C1323.47 522.76 1324.55 524.86 1326.19 524.86ZM1333.63 527V525.22L1338.21 520.26C1338.99 519.4 1340.65 517.72 1340.65 516.18C1340.65 515.08 1339.87 514.34 1338.73 514.34C1337.47 514.34 1336.65 515.24 1336.65 516.56L1333.79 516.3C1333.79 513.72 1335.73 512 1338.65 512C1341.57 512 1343.49 513.56 1343.49 515.96C1343.49 518.06 1342.05 519.76 1340.07 521.84L1337.31 524.72L1343.67 524.66V527H1333.63ZM1350.83 518.02C1353.59 518.08 1355.41 519.86 1355.41 522.46C1355.41 525.3 1353.25 527.2 1349.77 527.2C1347.95 527.2 1346.21 526.66 1345.25 525.72L1346.31 523.66C1347.03 524.42 1348.17 524.86 1349.45 524.86C1351.33 524.86 1352.49 523.9 1352.49 522.48C1352.49 521.06 1351.37 520.16 1349.67 520.16C1348.91 520.16 1348.25 520.32 1347.65 520.64L1346.89 519.22L1350.97 514.54H1345.93V512.2H1354.65V513.96L1350.83 518.02Z" fill="#1A1A1E"/>
<path d="M1519.98 527V525.22L1524.56 520.26C1525.34 519.4 1527 517.72 1527 516.18C1527 515.08 1526.22 514.34 1525.08 514.34C1523.82 514.34 1523 515.24 1523 516.56L1520.14 516.3C1520.14 513.72 1522.08 512 1525 512C1527.92 512 1529.84 513.56 1529.84 515.96C1529.84 518.06 1528.4 519.76 1526.42 521.84L1523.66 524.72L1530.02 524.66V527H1519.98ZM1537.59 527.2C1534.21 527.2 1531.95 524.16 1531.95 519.6C1531.95 515.04 1534.21 512 1537.59 512C1540.97 512 1543.21 515.04 1543.21 519.6C1543.21 524.16 1540.97 527.2 1537.59 527.2ZM1537.59 524.86C1539.23 524.86 1540.31 522.76 1540.31 519.6C1540.31 516.44 1539.23 514.34 1537.59 514.34C1535.95 514.34 1534.87 516.44 1534.87 519.6C1534.87 522.76 1535.95 524.86 1537.59 524.86ZM1545.04 527V525.22L1549.62 520.26C1550.4 519.4 1552.06 517.72 1552.06 516.18C1552.06 515.08 1551.28 514.34 1550.14 514.34C1548.88 514.34 1548.06 515.24 1548.06 516.56L1545.2 516.3C1545.2 513.72 1547.14 512 1550.06 512C1552.98 512 1554.9 513.56 1554.9 515.96C1554.9 518.06 1553.46 519.76 1551.48 521.84L1548.72 524.72L1555.08 524.66V527H1545.04ZM1563.31 527V524.14H1556.45V522.2L1563.93 512.2H1566.13V521.8H1568.17V524.14H1566.13V527H1563.31ZM1559.77 521.88H1563.39L1563.43 517L1559.77 521.88Z" fill="#1A1A1E"/>
<path d="M892.732 561.24V565.32H885.916V579H880.972V561.24H892.732ZM903.163 579.24C897.283 579.24 893.371 575.592 893.371 570.12C893.371 564.648 897.283 561 903.163 561C908.995 561 912.907 564.648 912.907 570.12C912.907 575.592 908.995 579.24 903.163 579.24ZM903.163 575.16C905.947 575.16 907.819 573.144 907.819 570.12C907.819 567.096 905.947 565.08 903.163 565.08C900.355 565.08 898.483 567.096 898.483 570.12C898.483 573.144 900.355 575.16 903.163 575.16ZM933.24 574.92H936.36V581.4H931.416V579H918.6V581.4H913.656V574.92H915.336C916.344 574.92 917.064 574.248 917.136 573.24L917.976 561.24H933.24V574.92ZM921.384 574.92H928.296V565.32H922.632L922.104 572.76C922.056 573.552 921.792 574.296 921.384 574.92Z" fill="#1A1A1E"/>
<path d="M18 369.454L10.992 374.83V374.854H18V379.798H0.24V374.854H6.792L0.24 369.862V363.958L8.88 370.75L18 363.55V369.454ZM18.24 354.49C18.24 360.37 14.592 364.282 9.12 364.282C3.648 364.282 -1.43051e-06 360.37 -1.43051e-06 354.49C-1.43051e-06 348.658 3.648 344.746 9.12 344.746C14.592 344.746 18.24 348.658 18.24 354.49ZM14.16 354.49C14.16 351.706 12.144 349.834 9.12 349.834C6.096 349.834 4.08 351.706 4.08 354.49C4.08 357.298 6.096 359.17 9.12 359.17C12.144 359.17 14.16 357.298 14.16 354.49ZM0.24 325.469H18V330.413H4.32V336.053L12.672 336.629C16.008 336.845 18.24 339.533 18.24 343.373H13.92C13.92 342.365 13.248 341.645 12.24 341.573L0.24 340.733L0.24 325.469ZM12.672 322.364H9.288V312.404H12.672V322.364ZM8.472 297.322C9.24 295.402 10.728 294.25 12.624 294.25C15.84 294.25 18 296.89 18 300.898V309.298H0.24L0.24 300.706C0.24 297.49 2.16 295.33 5.064 295.33C6.432 295.33 7.608 296.05 8.472 297.322ZM4.32 304.354H6.84V301.93C6.84 301.018 6.336 300.418 5.568 300.418C4.824 300.418 4.32 300.994 4.32 301.81V304.354ZM13.92 301.138C13.92 300.058 13.32 299.338 12.408 299.338C11.52 299.338 10.92 300.058 10.92 301.09V304.354H13.92V301.138ZM18.24 282.912C18.24 288.792 14.592 292.704 9.12 292.704C3.648 292.704 -1.43051e-06 288.792 -1.43051e-06 282.912C-1.43051e-06 277.08 3.648 273.168 9.12 273.168C14.592 273.168 18.24 277.08 18.24 282.912ZM14.16 282.912C14.16 280.128 12.144 278.256 9.12 278.256C6.096 278.256 4.08 280.128 4.08 282.912C4.08 285.72 6.096 287.592 9.12 287.592C12.144 287.592 14.16 285.72 14.16 282.912ZM8.496 255.495C9.288 253.431 10.752 252.183 12.624 252.183C15.984 252.183 18.24 255.207 18.24 259.791C18.24 262.119 17.64 264.423 15.84 266.751L12.48 264.351C13.728 262.911 14.16 261.471 14.16 260.031C14.16 258.375 13.464 257.271 12.408 257.271C11.376 257.271 10.68 258.279 10.68 259.743V261.951H7.08V260.583C7.08 259.239 6.48 258.351 5.568 258.351C4.68 258.351 4.08 259.311 4.08 260.703C4.08 261.759 4.368 262.815 5.28 263.871L2.16 266.031C0.527999 263.895 -1.43051e-06 261.735 -1.43051e-06 259.599C-1.43051e-06 255.807 2.016 253.263 5.064 253.263C6.456 253.263 7.656 254.079 8.496 255.495ZM18 238.024L15.576 238.936V245.848L18 246.76V252.04L0.24 244.672L0.24 240.088L18 232.744L18 238.024ZM11.496 244.288V240.472L6.408 242.368L11.496 244.288ZM0.24 231.11L0.24 213.206H18V218.15H4.32L4.32 226.166H18V231.11H0.24ZM0.24 201.651C0.24 197.667 2.664 195.027 6.312 195.027C10.152 195.027 12.72 197.763 12.72 201.915V204.651H18V209.595H0.24V201.651ZM8.64 202.155C8.64 200.811 7.776 200.115 6.48 200.115C5.184 200.115 4.32 200.907 4.32 202.155V204.651H8.64V202.155ZM18.24 183.888C18.24 189.768 14.592 193.68 9.12 193.68C3.648 193.68 -1.43051e-06 189.768 -1.43051e-06 183.888C-1.43051e-06 178.056 3.648 174.144 9.12 174.144C14.592 174.144 18.24 178.056 18.24 183.888ZM14.16 183.888C14.16 181.104 12.144 179.232 9.12 179.232C6.096 179.232 4.08 181.104 4.08 183.888C4.08 186.696 6.096 188.568 9.12 188.568C12.144 188.568 14.16 186.696 14.16 183.888ZM18.24 162.724C18.24 168.604 14.592 172.516 9.12 172.516C3.648 172.516 -1.43051e-06 168.604 -1.43051e-06 162.724C-1.43051e-06 161.356 0.215999 160.108 0.767999 158.956H5.256C4.512 159.748 4.08 161.044 4.08 162.652C4.08 165.508 6.096 167.404 9.12 167.404C12.144 167.404 14.16 165.508 14.16 162.652C14.16 161.044 13.704 159.748 12.984 158.956H17.472C18.024 160.108 18.24 161.356 18.24 162.724ZM18.24 147.537C18.24 153.417 14.592 157.329 9.12 157.329C3.648 157.329 -1.43051e-06 153.417 -1.43051e-06 147.537C-1.43051e-06 141.705 3.648 137.793 9.12 137.793C14.592 137.793 18.24 141.705 18.24 147.537ZM14.16 147.537C14.16 144.753 12.144 142.881 9.12 142.881C6.096 142.881 4.08 144.753 4.08 147.537C4.08 150.345 6.096 152.217 9.12 152.217C12.144 152.217 14.16 150.345 14.16 147.537ZM8.472 123.204C9.24 121.284 10.728 120.132 12.624 120.132C15.84 120.132 18 122.772 18 126.78V135.18H0.24L0.24 126.588C0.24 123.372 2.16 121.212 5.064 121.212C6.432 121.212 7.608 121.932 8.472 123.204ZM4.32 130.236H6.84V127.812C6.84 126.9 6.336 126.3 5.568 126.3C4.824 126.3 4.32 126.876 4.32 127.692V130.236ZM13.92 127.02C13.92 125.94 13.32 125.22 12.408 125.22C11.52 125.22 10.92 125.94 10.92 126.972V130.236H13.92V127.02Z" fill="#1A1A1E"/>
</svg>
